M48
; DRILL file {KiCad (5.1.6)-1} date 12/06/20 15:05:46
; FORMAT={-:-/ absolute / metric / decimal}
; #@! TF.CreationDate,2020-12-06T15:05:46+11:00
; #@! TF.GenerationSoftware,Kicad,Pcbnew,(5.1.6)-1
; #@! TF.FileFunction,Plated,1,2,PTH
FMAT,2
METRIC
T1C0.800
%
G90
G05
T1
X138.176Y-78.486
X138.176Y-81.026
X138.176Y-83.566
X138.176Y-86.106
X138.176Y-88.646
X138.176Y-91.186
X138.176Y-93.726
X138.176Y-96.266
X138.176Y-98.806
X138.176Y-101.346
X138.176Y-103.886
X138.176Y-106.426
X138.176Y-108.966
X138.176Y-111.506
X153.416Y-78.486
X153.416Y-81.026
X153.416Y-83.566
X153.416Y-86.106
X153.416Y-88.646
X153.416Y-91.186
X153.416Y-93.726
X153.416Y-96.266
X153.416Y-98.806
X153.416Y-101.346
X153.416Y-103.886
X153.416Y-106.426
X153.416Y-108.966
X153.416Y-111.506
T0
M30
