G04 #@! TF.GenerationSoftware,KiCad,Pcbnew,(5.1.6)-1*
G04 #@! TF.CreationDate,2020-12-06T15:05:41+11:00*
G04 #@! TF.ProjectId,EAadaptor,45416164-6170-4746-9f72-2e6b69636164,rev?*
G04 #@! TF.SameCoordinates,Original*
G04 #@! TF.FileFunction,Paste,Top*
G04 #@! TF.FilePolarity,Positive*
%FSLAX46Y46*%
G04 Gerber Fmt 4.6, Leading zero omitted, Abs format (unit mm)*
G04 Created by KiCad (PCBNEW (5.1.6)-1) date 2020-12-06 15:05:41*
%MOMM*%
%LPD*%
G01*
G04 APERTURE LIST*
%ADD10R,0.500000X0.900000*%
G04 APERTURE END LIST*
D10*
X140486000Y-111506000D03*
X141986000Y-111506000D03*
X151118000Y-78486000D03*
X149618000Y-78486000D03*
X151118000Y-98806000D03*
X149618000Y-98806000D03*
X149618000Y-96266000D03*
X151118000Y-96266000D03*
X151118000Y-93726000D03*
X149618000Y-93726000D03*
X149618000Y-91186000D03*
X151118000Y-91186000D03*
X151118000Y-88646000D03*
X149618000Y-88646000D03*
X149618000Y-86106000D03*
X151118000Y-86106000D03*
X151118000Y-83566000D03*
X149618000Y-83566000D03*
X149618000Y-81026000D03*
X151118000Y-81026000D03*
X141974000Y-101346000D03*
X140474000Y-101346000D03*
X140474000Y-98806000D03*
X141974000Y-98806000D03*
X141974000Y-96266000D03*
X140474000Y-96266000D03*
X140474000Y-93726000D03*
X141974000Y-93726000D03*
X141974000Y-91186000D03*
X140474000Y-91186000D03*
X140474000Y-88646000D03*
X141974000Y-88646000D03*
X141974000Y-86106000D03*
X140474000Y-86106000D03*
X140474000Y-83566000D03*
X141974000Y-83566000D03*
X141974000Y-81026000D03*
X140474000Y-81026000D03*
X140474000Y-78486000D03*
X141974000Y-78486000D03*
X149630000Y-111506000D03*
X151130000Y-111506000D03*
X151118000Y-101346000D03*
X149618000Y-101346000D03*
X149618000Y-103886000D03*
X151118000Y-103886000D03*
X151130000Y-106426000D03*
X149630000Y-106426000D03*
X149618000Y-108966000D03*
X151118000Y-108966000D03*
X141974000Y-108966000D03*
X140474000Y-108966000D03*
X140474000Y-106426000D03*
X141974000Y-106426000D03*
X141974000Y-103886000D03*
X140474000Y-103886000D03*
M02*
