G04 #@! TF.GenerationSoftware,KiCad,Pcbnew,(5.1.6)-1*
G04 #@! TF.CreationDate,2020-12-06T15:05:41+11:00*
G04 #@! TF.ProjectId,EAadaptor,45416164-6170-4746-9f72-2e6b69636164,rev?*
G04 #@! TF.SameCoordinates,Original*
G04 #@! TF.FileFunction,Copper,L1,Top*
G04 #@! TF.FilePolarity,Positive*
%FSLAX46Y46*%
G04 Gerber Fmt 4.6, Leading zero omitted, Abs format (unit mm)*
G04 Created by KiCad (PCBNEW (5.1.6)-1) date 2020-12-06 15:05:41*
%MOMM*%
%LPD*%
G01*
G04 APERTURE LIST*
G04 #@! TA.AperFunction,ComponentPad*
%ADD10O,1.600000X1.600000*%
G04 #@! TD*
G04 #@! TA.AperFunction,ComponentPad*
%ADD11R,1.600000X1.600000*%
G04 #@! TD*
G04 #@! TA.AperFunction,SMDPad,CuDef*
%ADD12R,0.500000X0.900000*%
G04 #@! TD*
G04 #@! TA.AperFunction,Conductor*
%ADD13C,0.250000*%
G04 #@! TD*
G04 #@! TA.AperFunction,Conductor*
%ADD14C,0.254000*%
G04 #@! TD*
G04 APERTURE END LIST*
D10*
X153416000Y-78486000D03*
X138176000Y-111506000D03*
X153416000Y-81026000D03*
X138176000Y-108966000D03*
X153416000Y-83566000D03*
X138176000Y-106426000D03*
X153416000Y-86106000D03*
X138176000Y-103886000D03*
X153416000Y-88646000D03*
X138176000Y-101346000D03*
X153416000Y-91186000D03*
X138176000Y-98806000D03*
X153416000Y-93726000D03*
X138176000Y-96266000D03*
X153416000Y-96266000D03*
X138176000Y-93726000D03*
X153416000Y-98806000D03*
X138176000Y-91186000D03*
X153416000Y-101346000D03*
X138176000Y-88646000D03*
X153416000Y-103886000D03*
X138176000Y-86106000D03*
X153416000Y-106426000D03*
X138176000Y-83566000D03*
X153416000Y-108966000D03*
X138176000Y-81026000D03*
X153416000Y-111506000D03*
D11*
X138176000Y-78486000D03*
D12*
X140486000Y-111506000D03*
X141986000Y-111506000D03*
X151118000Y-78486000D03*
X149618000Y-78486000D03*
X151118000Y-98806000D03*
X149618000Y-98806000D03*
X149618000Y-96266000D03*
X151118000Y-96266000D03*
X151118000Y-93726000D03*
X149618000Y-93726000D03*
X149618000Y-91186000D03*
X151118000Y-91186000D03*
X151118000Y-88646000D03*
X149618000Y-88646000D03*
X149618000Y-86106000D03*
X151118000Y-86106000D03*
X151118000Y-83566000D03*
X149618000Y-83566000D03*
X149618000Y-81026000D03*
X151118000Y-81026000D03*
X141974000Y-101346000D03*
X140474000Y-101346000D03*
X140474000Y-98806000D03*
X141974000Y-98806000D03*
X141974000Y-96266000D03*
X140474000Y-96266000D03*
X140474000Y-93726000D03*
X141974000Y-93726000D03*
X141974000Y-91186000D03*
X140474000Y-91186000D03*
X140474000Y-88646000D03*
X141974000Y-88646000D03*
X141974000Y-86106000D03*
X140474000Y-86106000D03*
X140474000Y-83566000D03*
X141974000Y-83566000D03*
X141974000Y-81026000D03*
X140474000Y-81026000D03*
X140474000Y-78486000D03*
X141974000Y-78486000D03*
X149630000Y-111506000D03*
X151130000Y-111506000D03*
X151118000Y-101346000D03*
X149618000Y-101346000D03*
X149618000Y-103886000D03*
X151118000Y-103886000D03*
X151130000Y-106426000D03*
X149630000Y-106426000D03*
X149618000Y-108966000D03*
X151118000Y-108966000D03*
X141974000Y-108966000D03*
X140474000Y-108966000D03*
X140474000Y-106426000D03*
X141974000Y-106426000D03*
X141974000Y-103886000D03*
X140474000Y-103886000D03*
D13*
X138176000Y-78486000D02*
X140474000Y-78486000D01*
X138176000Y-81026000D02*
X140716000Y-81026000D01*
X138176000Y-83566000D02*
X140474000Y-83566000D01*
X138176000Y-86106000D02*
X140474000Y-86106000D01*
X138176000Y-88646000D02*
X140474000Y-88646000D01*
X138176000Y-91186000D02*
X140474000Y-91186000D01*
X138176000Y-93726000D02*
X140474000Y-93726000D01*
X138176000Y-96266000D02*
X140474000Y-96266000D01*
X138176000Y-98806000D02*
X140474000Y-98806000D01*
X138176000Y-101346000D02*
X140474000Y-101346000D01*
X138176000Y-103886000D02*
X140474000Y-103886000D01*
X153416000Y-81026000D02*
X152284630Y-81026000D01*
X151118000Y-81026000D02*
X153416000Y-81026000D01*
X151384000Y-83566000D02*
X153416000Y-83566000D01*
X151118000Y-86106000D02*
X153416000Y-86106000D01*
X151118000Y-88646000D02*
X153416000Y-88646000D01*
X151118000Y-91186000D02*
X153416000Y-91186000D01*
X153416000Y-93726000D02*
X151384000Y-93726000D01*
X151118000Y-96266000D02*
X153416000Y-96266000D01*
X153416000Y-98806000D02*
X151118000Y-98806000D01*
X153416000Y-101346000D02*
X151118000Y-101346000D01*
X153416000Y-103886000D02*
X151118000Y-103886000D01*
X153416000Y-106426000D02*
X151130000Y-106426000D01*
X153416000Y-108966000D02*
X151118000Y-108966000D01*
X153416000Y-111506000D02*
X151130000Y-111506000D01*
X138176000Y-106426000D02*
X140474000Y-106426000D01*
X138176000Y-108966000D02*
X140474000Y-108966000D01*
X138176000Y-111506000D02*
X140486000Y-111506000D01*
X153416000Y-78486000D02*
X151118000Y-78486000D01*
D14*
G36*
X144279414Y-77672099D02*
G01*
X144283797Y-77680205D01*
X144379324Y-77853966D01*
X144413130Y-77903338D01*
X144446221Y-77953144D01*
X144452095Y-77960245D01*
X144579552Y-78112142D01*
X144622263Y-78153968D01*
X144664441Y-78196442D01*
X144671583Y-78202266D01*
X144826116Y-78326515D01*
X144876170Y-78359269D01*
X144925765Y-78392722D01*
X144933901Y-78397048D01*
X145109625Y-78488914D01*
X145165078Y-78511318D01*
X145220233Y-78534503D01*
X145229055Y-78537166D01*
X145419276Y-78593151D01*
X145478010Y-78604355D01*
X145536633Y-78616389D01*
X145545805Y-78617288D01*
X145743277Y-78635259D01*
X145803094Y-78634841D01*
X145862911Y-78635259D01*
X145872083Y-78634359D01*
X146069284Y-78613632D01*
X146127834Y-78601613D01*
X146186639Y-78590396D01*
X146195461Y-78587732D01*
X146384882Y-78529097D01*
X146440009Y-78505924D01*
X146495492Y-78483507D01*
X146503629Y-78479181D01*
X146678052Y-78384870D01*
X146727636Y-78351425D01*
X146777699Y-78318665D01*
X146784840Y-78312841D01*
X146937624Y-78186446D01*
X146979744Y-78144031D01*
X147022513Y-78102149D01*
X147028387Y-78095048D01*
X147153711Y-77941386D01*
X147186803Y-77891577D01*
X147220610Y-77842205D01*
X147224993Y-77834098D01*
X147318084Y-77659020D01*
X147333342Y-77622000D01*
X150386298Y-77622000D01*
X150337463Y-77681506D01*
X150278498Y-77791820D01*
X150242188Y-77911518D01*
X150229928Y-78036000D01*
X150229928Y-78936000D01*
X150242188Y-79060482D01*
X150278498Y-79180180D01*
X150337463Y-79290494D01*
X150416815Y-79387185D01*
X150513506Y-79466537D01*
X150623820Y-79525502D01*
X150743518Y-79561812D01*
X150868000Y-79574072D01*
X151368000Y-79574072D01*
X151492482Y-79561812D01*
X151612180Y-79525502D01*
X151722494Y-79466537D01*
X151819185Y-79387185D01*
X151898537Y-79290494D01*
X151922320Y-79246000D01*
X152197957Y-79246000D01*
X152301363Y-79400759D01*
X152501241Y-79600637D01*
X152733759Y-79756000D01*
X152501241Y-79911363D01*
X152301363Y-80111241D01*
X152197957Y-80266000D01*
X151922320Y-80266000D01*
X151898537Y-80221506D01*
X151819185Y-80124815D01*
X151722494Y-80045463D01*
X151612180Y-79986498D01*
X151492482Y-79950188D01*
X151368000Y-79937928D01*
X150868000Y-79937928D01*
X150743518Y-79950188D01*
X150623820Y-79986498D01*
X150513506Y-80045463D01*
X150416815Y-80124815D01*
X150337463Y-80221506D01*
X150278498Y-80331820D01*
X150242188Y-80451518D01*
X150229928Y-80576000D01*
X150229928Y-81476000D01*
X150242188Y-81600482D01*
X150278498Y-81720180D01*
X150337463Y-81830494D01*
X150416815Y-81927185D01*
X150513506Y-82006537D01*
X150623820Y-82065502D01*
X150743518Y-82101812D01*
X150868000Y-82114072D01*
X151368000Y-82114072D01*
X151492482Y-82101812D01*
X151612180Y-82065502D01*
X151722494Y-82006537D01*
X151819185Y-81927185D01*
X151898537Y-81830494D01*
X151922320Y-81786000D01*
X152197957Y-81786000D01*
X152301363Y-81940759D01*
X152501241Y-82140637D01*
X152733759Y-82296000D01*
X152501241Y-82451363D01*
X152301363Y-82651241D01*
X152197957Y-82806000D01*
X151922320Y-82806000D01*
X151898537Y-82761506D01*
X151819185Y-82664815D01*
X151722494Y-82585463D01*
X151612180Y-82526498D01*
X151492482Y-82490188D01*
X151368000Y-82477928D01*
X150868000Y-82477928D01*
X150743518Y-82490188D01*
X150623820Y-82526498D01*
X150513506Y-82585463D01*
X150416815Y-82664815D01*
X150337463Y-82761506D01*
X150278498Y-82871820D01*
X150242188Y-82991518D01*
X150229928Y-83116000D01*
X150229928Y-84016000D01*
X150242188Y-84140482D01*
X150278498Y-84260180D01*
X150337463Y-84370494D01*
X150416815Y-84467185D01*
X150513506Y-84546537D01*
X150623820Y-84605502D01*
X150743518Y-84641812D01*
X150868000Y-84654072D01*
X151368000Y-84654072D01*
X151492482Y-84641812D01*
X151612180Y-84605502D01*
X151722494Y-84546537D01*
X151819185Y-84467185D01*
X151898537Y-84370494D01*
X151922320Y-84326000D01*
X152197957Y-84326000D01*
X152301363Y-84480759D01*
X152501241Y-84680637D01*
X152733759Y-84836000D01*
X152501241Y-84991363D01*
X152301363Y-85191241D01*
X152197957Y-85346000D01*
X151922320Y-85346000D01*
X151898537Y-85301506D01*
X151819185Y-85204815D01*
X151722494Y-85125463D01*
X151612180Y-85066498D01*
X151492482Y-85030188D01*
X151368000Y-85017928D01*
X150868000Y-85017928D01*
X150743518Y-85030188D01*
X150623820Y-85066498D01*
X150513506Y-85125463D01*
X150416815Y-85204815D01*
X150337463Y-85301506D01*
X150278498Y-85411820D01*
X150242188Y-85531518D01*
X150229928Y-85656000D01*
X150229928Y-86556000D01*
X150242188Y-86680482D01*
X150278498Y-86800180D01*
X150337463Y-86910494D01*
X150416815Y-87007185D01*
X150513506Y-87086537D01*
X150623820Y-87145502D01*
X150743518Y-87181812D01*
X150868000Y-87194072D01*
X151368000Y-87194072D01*
X151492482Y-87181812D01*
X151612180Y-87145502D01*
X151722494Y-87086537D01*
X151819185Y-87007185D01*
X151898537Y-86910494D01*
X151922320Y-86866000D01*
X152197957Y-86866000D01*
X152301363Y-87020759D01*
X152501241Y-87220637D01*
X152733759Y-87376000D01*
X152501241Y-87531363D01*
X152301363Y-87731241D01*
X152197957Y-87886000D01*
X151922320Y-87886000D01*
X151898537Y-87841506D01*
X151819185Y-87744815D01*
X151722494Y-87665463D01*
X151612180Y-87606498D01*
X151492482Y-87570188D01*
X151368000Y-87557928D01*
X150868000Y-87557928D01*
X150743518Y-87570188D01*
X150623820Y-87606498D01*
X150513506Y-87665463D01*
X150416815Y-87744815D01*
X150337463Y-87841506D01*
X150278498Y-87951820D01*
X150242188Y-88071518D01*
X150229928Y-88196000D01*
X150229928Y-89096000D01*
X150242188Y-89220482D01*
X150278498Y-89340180D01*
X150337463Y-89450494D01*
X150416815Y-89547185D01*
X150513506Y-89626537D01*
X150623820Y-89685502D01*
X150743518Y-89721812D01*
X150868000Y-89734072D01*
X151368000Y-89734072D01*
X151492482Y-89721812D01*
X151612180Y-89685502D01*
X151722494Y-89626537D01*
X151819185Y-89547185D01*
X151898537Y-89450494D01*
X151922320Y-89406000D01*
X152197957Y-89406000D01*
X152301363Y-89560759D01*
X152501241Y-89760637D01*
X152733759Y-89916000D01*
X152501241Y-90071363D01*
X152301363Y-90271241D01*
X152197957Y-90426000D01*
X151922320Y-90426000D01*
X151898537Y-90381506D01*
X151819185Y-90284815D01*
X151722494Y-90205463D01*
X151612180Y-90146498D01*
X151492482Y-90110188D01*
X151368000Y-90097928D01*
X150868000Y-90097928D01*
X150743518Y-90110188D01*
X150623820Y-90146498D01*
X150513506Y-90205463D01*
X150416815Y-90284815D01*
X150337463Y-90381506D01*
X150278498Y-90491820D01*
X150242188Y-90611518D01*
X150229928Y-90736000D01*
X150229928Y-91636000D01*
X150242188Y-91760482D01*
X150278498Y-91880180D01*
X150337463Y-91990494D01*
X150416815Y-92087185D01*
X150513506Y-92166537D01*
X150623820Y-92225502D01*
X150743518Y-92261812D01*
X150868000Y-92274072D01*
X151368000Y-92274072D01*
X151492482Y-92261812D01*
X151612180Y-92225502D01*
X151722494Y-92166537D01*
X151819185Y-92087185D01*
X151898537Y-91990494D01*
X151922320Y-91946000D01*
X152197957Y-91946000D01*
X152301363Y-92100759D01*
X152501241Y-92300637D01*
X152733759Y-92456000D01*
X152501241Y-92611363D01*
X152301363Y-92811241D01*
X152197957Y-92966000D01*
X151922320Y-92966000D01*
X151898537Y-92921506D01*
X151819185Y-92824815D01*
X151722494Y-92745463D01*
X151612180Y-92686498D01*
X151492482Y-92650188D01*
X151368000Y-92637928D01*
X150868000Y-92637928D01*
X150743518Y-92650188D01*
X150623820Y-92686498D01*
X150513506Y-92745463D01*
X150416815Y-92824815D01*
X150337463Y-92921506D01*
X150278498Y-93031820D01*
X150242188Y-93151518D01*
X150229928Y-93276000D01*
X150229928Y-94176000D01*
X150242188Y-94300482D01*
X150278498Y-94420180D01*
X150337463Y-94530494D01*
X150416815Y-94627185D01*
X150513506Y-94706537D01*
X150623820Y-94765502D01*
X150743518Y-94801812D01*
X150868000Y-94814072D01*
X151368000Y-94814072D01*
X151492482Y-94801812D01*
X151612180Y-94765502D01*
X151722494Y-94706537D01*
X151819185Y-94627185D01*
X151898537Y-94530494D01*
X151922320Y-94486000D01*
X152197957Y-94486000D01*
X152301363Y-94640759D01*
X152501241Y-94840637D01*
X152733759Y-94996000D01*
X152501241Y-95151363D01*
X152301363Y-95351241D01*
X152197957Y-95506000D01*
X151922320Y-95506000D01*
X151898537Y-95461506D01*
X151819185Y-95364815D01*
X151722494Y-95285463D01*
X151612180Y-95226498D01*
X151492482Y-95190188D01*
X151368000Y-95177928D01*
X150868000Y-95177928D01*
X150743518Y-95190188D01*
X150623820Y-95226498D01*
X150513506Y-95285463D01*
X150416815Y-95364815D01*
X150337463Y-95461506D01*
X150278498Y-95571820D01*
X150242188Y-95691518D01*
X150229928Y-95816000D01*
X150229928Y-96716000D01*
X150242188Y-96840482D01*
X150278498Y-96960180D01*
X150337463Y-97070494D01*
X150416815Y-97167185D01*
X150513506Y-97246537D01*
X150623820Y-97305502D01*
X150743518Y-97341812D01*
X150868000Y-97354072D01*
X151368000Y-97354072D01*
X151492482Y-97341812D01*
X151612180Y-97305502D01*
X151722494Y-97246537D01*
X151819185Y-97167185D01*
X151898537Y-97070494D01*
X151922320Y-97026000D01*
X152197957Y-97026000D01*
X152301363Y-97180759D01*
X152501241Y-97380637D01*
X152733759Y-97536000D01*
X152501241Y-97691363D01*
X152301363Y-97891241D01*
X152197957Y-98046000D01*
X151922320Y-98046000D01*
X151898537Y-98001506D01*
X151819185Y-97904815D01*
X151722494Y-97825463D01*
X151612180Y-97766498D01*
X151492482Y-97730188D01*
X151368000Y-97717928D01*
X150868000Y-97717928D01*
X150743518Y-97730188D01*
X150623820Y-97766498D01*
X150513506Y-97825463D01*
X150416815Y-97904815D01*
X150337463Y-98001506D01*
X150278498Y-98111820D01*
X150242188Y-98231518D01*
X150229928Y-98356000D01*
X150229928Y-99256000D01*
X150242188Y-99380482D01*
X150278498Y-99500180D01*
X150337463Y-99610494D01*
X150416815Y-99707185D01*
X150513506Y-99786537D01*
X150623820Y-99845502D01*
X150743518Y-99881812D01*
X150868000Y-99894072D01*
X151368000Y-99894072D01*
X151492482Y-99881812D01*
X151612180Y-99845502D01*
X151722494Y-99786537D01*
X151819185Y-99707185D01*
X151898537Y-99610494D01*
X151922320Y-99566000D01*
X152197957Y-99566000D01*
X152301363Y-99720759D01*
X152501241Y-99920637D01*
X152733759Y-100076000D01*
X152501241Y-100231363D01*
X152301363Y-100431241D01*
X152197957Y-100586000D01*
X151922320Y-100586000D01*
X151898537Y-100541506D01*
X151819185Y-100444815D01*
X151722494Y-100365463D01*
X151612180Y-100306498D01*
X151492482Y-100270188D01*
X151368000Y-100257928D01*
X150868000Y-100257928D01*
X150743518Y-100270188D01*
X150623820Y-100306498D01*
X150513506Y-100365463D01*
X150416815Y-100444815D01*
X150337463Y-100541506D01*
X150278498Y-100651820D01*
X150242188Y-100771518D01*
X150229928Y-100896000D01*
X150229928Y-101796000D01*
X150242188Y-101920482D01*
X150278498Y-102040180D01*
X150337463Y-102150494D01*
X150416815Y-102247185D01*
X150513506Y-102326537D01*
X150623820Y-102385502D01*
X150743518Y-102421812D01*
X150868000Y-102434072D01*
X151368000Y-102434072D01*
X151492482Y-102421812D01*
X151612180Y-102385502D01*
X151722494Y-102326537D01*
X151819185Y-102247185D01*
X151898537Y-102150494D01*
X151922320Y-102106000D01*
X152197957Y-102106000D01*
X152301363Y-102260759D01*
X152501241Y-102460637D01*
X152733759Y-102616000D01*
X152501241Y-102771363D01*
X152301363Y-102971241D01*
X152197957Y-103126000D01*
X151922320Y-103126000D01*
X151898537Y-103081506D01*
X151819185Y-102984815D01*
X151722494Y-102905463D01*
X151612180Y-102846498D01*
X151492482Y-102810188D01*
X151368000Y-102797928D01*
X150868000Y-102797928D01*
X150743518Y-102810188D01*
X150623820Y-102846498D01*
X150513506Y-102905463D01*
X150416815Y-102984815D01*
X150337463Y-103081506D01*
X150278498Y-103191820D01*
X150242188Y-103311518D01*
X150229928Y-103436000D01*
X150229928Y-104336000D01*
X150242188Y-104460482D01*
X150278498Y-104580180D01*
X150337463Y-104690494D01*
X150416815Y-104787185D01*
X150513506Y-104866537D01*
X150623820Y-104925502D01*
X150743518Y-104961812D01*
X150868000Y-104974072D01*
X151368000Y-104974072D01*
X151492482Y-104961812D01*
X151612180Y-104925502D01*
X151722494Y-104866537D01*
X151819185Y-104787185D01*
X151898537Y-104690494D01*
X151922320Y-104646000D01*
X152197957Y-104646000D01*
X152301363Y-104800759D01*
X152501241Y-105000637D01*
X152733759Y-105156000D01*
X152501241Y-105311363D01*
X152301363Y-105511241D01*
X152197957Y-105666000D01*
X151934320Y-105666000D01*
X151910537Y-105621506D01*
X151831185Y-105524815D01*
X151734494Y-105445463D01*
X151624180Y-105386498D01*
X151504482Y-105350188D01*
X151380000Y-105337928D01*
X150880000Y-105337928D01*
X150755518Y-105350188D01*
X150635820Y-105386498D01*
X150525506Y-105445463D01*
X150428815Y-105524815D01*
X150349463Y-105621506D01*
X150290498Y-105731820D01*
X150254188Y-105851518D01*
X150241928Y-105976000D01*
X150241928Y-106876000D01*
X150254188Y-107000482D01*
X150290498Y-107120180D01*
X150349463Y-107230494D01*
X150428815Y-107327185D01*
X150525506Y-107406537D01*
X150635820Y-107465502D01*
X150755518Y-107501812D01*
X150880000Y-107514072D01*
X151380000Y-107514072D01*
X151504482Y-107501812D01*
X151624180Y-107465502D01*
X151734494Y-107406537D01*
X151831185Y-107327185D01*
X151910537Y-107230494D01*
X151934320Y-107186000D01*
X152197957Y-107186000D01*
X152301363Y-107340759D01*
X152501241Y-107540637D01*
X152733759Y-107696000D01*
X152501241Y-107851363D01*
X152301363Y-108051241D01*
X152197957Y-108206000D01*
X151922320Y-108206000D01*
X151898537Y-108161506D01*
X151819185Y-108064815D01*
X151722494Y-107985463D01*
X151612180Y-107926498D01*
X151492482Y-107890188D01*
X151368000Y-107877928D01*
X150868000Y-107877928D01*
X150743518Y-107890188D01*
X150623820Y-107926498D01*
X150513506Y-107985463D01*
X150416815Y-108064815D01*
X150337463Y-108161506D01*
X150278498Y-108271820D01*
X150242188Y-108391518D01*
X150229928Y-108516000D01*
X150229928Y-109416000D01*
X150242188Y-109540482D01*
X150278498Y-109660180D01*
X150337463Y-109770494D01*
X150416815Y-109867185D01*
X150513506Y-109946537D01*
X150623820Y-110005502D01*
X150743518Y-110041812D01*
X150868000Y-110054072D01*
X151368000Y-110054072D01*
X151492482Y-110041812D01*
X151612180Y-110005502D01*
X151722494Y-109946537D01*
X151819185Y-109867185D01*
X151898537Y-109770494D01*
X151922320Y-109726000D01*
X152197957Y-109726000D01*
X152301363Y-109880759D01*
X152501241Y-110080637D01*
X152733759Y-110236000D01*
X152501241Y-110391363D01*
X152301363Y-110591241D01*
X152197957Y-110746000D01*
X151934320Y-110746000D01*
X151910537Y-110701506D01*
X151831185Y-110604815D01*
X151734494Y-110525463D01*
X151624180Y-110466498D01*
X151504482Y-110430188D01*
X151380000Y-110417928D01*
X150880000Y-110417928D01*
X150755518Y-110430188D01*
X150635820Y-110466498D01*
X150525506Y-110525463D01*
X150428815Y-110604815D01*
X150349463Y-110701506D01*
X150290498Y-110811820D01*
X150254188Y-110931518D01*
X150241928Y-111056000D01*
X150241928Y-111956000D01*
X150254188Y-112080482D01*
X150290498Y-112200180D01*
X150349463Y-112310494D01*
X150398298Y-112370000D01*
X141217702Y-112370000D01*
X141266537Y-112310494D01*
X141325502Y-112200180D01*
X141361812Y-112080482D01*
X141374072Y-111956000D01*
X141374072Y-111056000D01*
X141361812Y-110931518D01*
X141325502Y-110811820D01*
X141266537Y-110701506D01*
X141187185Y-110604815D01*
X141090494Y-110525463D01*
X140980180Y-110466498D01*
X140860482Y-110430188D01*
X140736000Y-110417928D01*
X140236000Y-110417928D01*
X140111518Y-110430188D01*
X139991820Y-110466498D01*
X139881506Y-110525463D01*
X139784815Y-110604815D01*
X139705463Y-110701506D01*
X139681680Y-110746000D01*
X139394043Y-110746000D01*
X139290637Y-110591241D01*
X139090759Y-110391363D01*
X138858241Y-110236000D01*
X139090759Y-110080637D01*
X139290637Y-109880759D01*
X139394043Y-109726000D01*
X139669680Y-109726000D01*
X139693463Y-109770494D01*
X139772815Y-109867185D01*
X139869506Y-109946537D01*
X139979820Y-110005502D01*
X140099518Y-110041812D01*
X140224000Y-110054072D01*
X140724000Y-110054072D01*
X140848482Y-110041812D01*
X140968180Y-110005502D01*
X141078494Y-109946537D01*
X141175185Y-109867185D01*
X141254537Y-109770494D01*
X141313502Y-109660180D01*
X141349812Y-109540482D01*
X141362072Y-109416000D01*
X141362072Y-108516000D01*
X141349812Y-108391518D01*
X141313502Y-108271820D01*
X141254537Y-108161506D01*
X141175185Y-108064815D01*
X141078494Y-107985463D01*
X140968180Y-107926498D01*
X140848482Y-107890188D01*
X140724000Y-107877928D01*
X140224000Y-107877928D01*
X140099518Y-107890188D01*
X139979820Y-107926498D01*
X139869506Y-107985463D01*
X139772815Y-108064815D01*
X139693463Y-108161506D01*
X139669680Y-108206000D01*
X139394043Y-108206000D01*
X139290637Y-108051241D01*
X139090759Y-107851363D01*
X138858241Y-107696000D01*
X139090759Y-107540637D01*
X139290637Y-107340759D01*
X139394043Y-107186000D01*
X139669680Y-107186000D01*
X139693463Y-107230494D01*
X139772815Y-107327185D01*
X139869506Y-107406537D01*
X139979820Y-107465502D01*
X140099518Y-107501812D01*
X140224000Y-107514072D01*
X140724000Y-107514072D01*
X140848482Y-107501812D01*
X140968180Y-107465502D01*
X141078494Y-107406537D01*
X141175185Y-107327185D01*
X141254537Y-107230494D01*
X141313502Y-107120180D01*
X141349812Y-107000482D01*
X141362072Y-106876000D01*
X141362072Y-105976000D01*
X141349812Y-105851518D01*
X141313502Y-105731820D01*
X141254537Y-105621506D01*
X141175185Y-105524815D01*
X141078494Y-105445463D01*
X140968180Y-105386498D01*
X140848482Y-105350188D01*
X140724000Y-105337928D01*
X140224000Y-105337928D01*
X140099518Y-105350188D01*
X139979820Y-105386498D01*
X139869506Y-105445463D01*
X139772815Y-105524815D01*
X139693463Y-105621506D01*
X139669680Y-105666000D01*
X139394043Y-105666000D01*
X139290637Y-105511241D01*
X139090759Y-105311363D01*
X138858241Y-105156000D01*
X139090759Y-105000637D01*
X139290637Y-104800759D01*
X139394043Y-104646000D01*
X139669680Y-104646000D01*
X139693463Y-104690494D01*
X139772815Y-104787185D01*
X139869506Y-104866537D01*
X139979820Y-104925502D01*
X140099518Y-104961812D01*
X140224000Y-104974072D01*
X140724000Y-104974072D01*
X140848482Y-104961812D01*
X140968180Y-104925502D01*
X141078494Y-104866537D01*
X141175185Y-104787185D01*
X141254537Y-104690494D01*
X141313502Y-104580180D01*
X141349812Y-104460482D01*
X141362072Y-104336000D01*
X141362072Y-103436000D01*
X141349812Y-103311518D01*
X141313502Y-103191820D01*
X141254537Y-103081506D01*
X141175185Y-102984815D01*
X141078494Y-102905463D01*
X140968180Y-102846498D01*
X140848482Y-102810188D01*
X140724000Y-102797928D01*
X140224000Y-102797928D01*
X140099518Y-102810188D01*
X139979820Y-102846498D01*
X139869506Y-102905463D01*
X139772815Y-102984815D01*
X139693463Y-103081506D01*
X139669680Y-103126000D01*
X139394043Y-103126000D01*
X139290637Y-102971241D01*
X139090759Y-102771363D01*
X138858241Y-102616000D01*
X139090759Y-102460637D01*
X139290637Y-102260759D01*
X139394043Y-102106000D01*
X139669680Y-102106000D01*
X139693463Y-102150494D01*
X139772815Y-102247185D01*
X139869506Y-102326537D01*
X139979820Y-102385502D01*
X140099518Y-102421812D01*
X140224000Y-102434072D01*
X140724000Y-102434072D01*
X140848482Y-102421812D01*
X140968180Y-102385502D01*
X141078494Y-102326537D01*
X141175185Y-102247185D01*
X141254537Y-102150494D01*
X141313502Y-102040180D01*
X141349812Y-101920482D01*
X141362072Y-101796000D01*
X141362072Y-100896000D01*
X141349812Y-100771518D01*
X141313502Y-100651820D01*
X141254537Y-100541506D01*
X141175185Y-100444815D01*
X141078494Y-100365463D01*
X140968180Y-100306498D01*
X140848482Y-100270188D01*
X140724000Y-100257928D01*
X140224000Y-100257928D01*
X140099518Y-100270188D01*
X139979820Y-100306498D01*
X139869506Y-100365463D01*
X139772815Y-100444815D01*
X139693463Y-100541506D01*
X139669680Y-100586000D01*
X139394043Y-100586000D01*
X139290637Y-100431241D01*
X139090759Y-100231363D01*
X138858241Y-100076000D01*
X139090759Y-99920637D01*
X139290637Y-99720759D01*
X139394043Y-99566000D01*
X139669680Y-99566000D01*
X139693463Y-99610494D01*
X139772815Y-99707185D01*
X139869506Y-99786537D01*
X139979820Y-99845502D01*
X140099518Y-99881812D01*
X140224000Y-99894072D01*
X140724000Y-99894072D01*
X140848482Y-99881812D01*
X140968180Y-99845502D01*
X141078494Y-99786537D01*
X141175185Y-99707185D01*
X141254537Y-99610494D01*
X141313502Y-99500180D01*
X141349812Y-99380482D01*
X141362072Y-99256000D01*
X141362072Y-98356000D01*
X141349812Y-98231518D01*
X141313502Y-98111820D01*
X141254537Y-98001506D01*
X141175185Y-97904815D01*
X141078494Y-97825463D01*
X140968180Y-97766498D01*
X140848482Y-97730188D01*
X140724000Y-97717928D01*
X140224000Y-97717928D01*
X140099518Y-97730188D01*
X139979820Y-97766498D01*
X139869506Y-97825463D01*
X139772815Y-97904815D01*
X139693463Y-98001506D01*
X139669680Y-98046000D01*
X139394043Y-98046000D01*
X139290637Y-97891241D01*
X139090759Y-97691363D01*
X138858241Y-97536000D01*
X139090759Y-97380637D01*
X139290637Y-97180759D01*
X139394043Y-97026000D01*
X139669680Y-97026000D01*
X139693463Y-97070494D01*
X139772815Y-97167185D01*
X139869506Y-97246537D01*
X139979820Y-97305502D01*
X140099518Y-97341812D01*
X140224000Y-97354072D01*
X140724000Y-97354072D01*
X140848482Y-97341812D01*
X140968180Y-97305502D01*
X141078494Y-97246537D01*
X141175185Y-97167185D01*
X141254537Y-97070494D01*
X141313502Y-96960180D01*
X141349812Y-96840482D01*
X141362072Y-96716000D01*
X141362072Y-95816000D01*
X141349812Y-95691518D01*
X141313502Y-95571820D01*
X141254537Y-95461506D01*
X141175185Y-95364815D01*
X141078494Y-95285463D01*
X140968180Y-95226498D01*
X140848482Y-95190188D01*
X140724000Y-95177928D01*
X140224000Y-95177928D01*
X140099518Y-95190188D01*
X139979820Y-95226498D01*
X139869506Y-95285463D01*
X139772815Y-95364815D01*
X139693463Y-95461506D01*
X139669680Y-95506000D01*
X139394043Y-95506000D01*
X139290637Y-95351241D01*
X139090759Y-95151363D01*
X138858241Y-94996000D01*
X139090759Y-94840637D01*
X139290637Y-94640759D01*
X139394043Y-94486000D01*
X139669680Y-94486000D01*
X139693463Y-94530494D01*
X139772815Y-94627185D01*
X139869506Y-94706537D01*
X139979820Y-94765502D01*
X140099518Y-94801812D01*
X140224000Y-94814072D01*
X140724000Y-94814072D01*
X140848482Y-94801812D01*
X140968180Y-94765502D01*
X141078494Y-94706537D01*
X141175185Y-94627185D01*
X141254537Y-94530494D01*
X141313502Y-94420180D01*
X141349812Y-94300482D01*
X141362072Y-94176000D01*
X141362072Y-93276000D01*
X141349812Y-93151518D01*
X141313502Y-93031820D01*
X141254537Y-92921506D01*
X141175185Y-92824815D01*
X141078494Y-92745463D01*
X140968180Y-92686498D01*
X140848482Y-92650188D01*
X140724000Y-92637928D01*
X140224000Y-92637928D01*
X140099518Y-92650188D01*
X139979820Y-92686498D01*
X139869506Y-92745463D01*
X139772815Y-92824815D01*
X139693463Y-92921506D01*
X139669680Y-92966000D01*
X139394043Y-92966000D01*
X139290637Y-92811241D01*
X139090759Y-92611363D01*
X138858241Y-92456000D01*
X139090759Y-92300637D01*
X139290637Y-92100759D01*
X139394043Y-91946000D01*
X139669680Y-91946000D01*
X139693463Y-91990494D01*
X139772815Y-92087185D01*
X139869506Y-92166537D01*
X139979820Y-92225502D01*
X140099518Y-92261812D01*
X140224000Y-92274072D01*
X140724000Y-92274072D01*
X140848482Y-92261812D01*
X140968180Y-92225502D01*
X141078494Y-92166537D01*
X141175185Y-92087185D01*
X141254537Y-91990494D01*
X141313502Y-91880180D01*
X141349812Y-91760482D01*
X141362072Y-91636000D01*
X141362072Y-90736000D01*
X141349812Y-90611518D01*
X141313502Y-90491820D01*
X141254537Y-90381506D01*
X141175185Y-90284815D01*
X141078494Y-90205463D01*
X140968180Y-90146498D01*
X140848482Y-90110188D01*
X140724000Y-90097928D01*
X140224000Y-90097928D01*
X140099518Y-90110188D01*
X139979820Y-90146498D01*
X139869506Y-90205463D01*
X139772815Y-90284815D01*
X139693463Y-90381506D01*
X139669680Y-90426000D01*
X139394043Y-90426000D01*
X139290637Y-90271241D01*
X139090759Y-90071363D01*
X138858241Y-89916000D01*
X139090759Y-89760637D01*
X139290637Y-89560759D01*
X139394043Y-89406000D01*
X139669680Y-89406000D01*
X139693463Y-89450494D01*
X139772815Y-89547185D01*
X139869506Y-89626537D01*
X139979820Y-89685502D01*
X140099518Y-89721812D01*
X140224000Y-89734072D01*
X140724000Y-89734072D01*
X140848482Y-89721812D01*
X140968180Y-89685502D01*
X141078494Y-89626537D01*
X141175185Y-89547185D01*
X141254537Y-89450494D01*
X141313502Y-89340180D01*
X141349812Y-89220482D01*
X141362072Y-89096000D01*
X141362072Y-88196000D01*
X141349812Y-88071518D01*
X141313502Y-87951820D01*
X141254537Y-87841506D01*
X141175185Y-87744815D01*
X141078494Y-87665463D01*
X140968180Y-87606498D01*
X140848482Y-87570188D01*
X140724000Y-87557928D01*
X140224000Y-87557928D01*
X140099518Y-87570188D01*
X139979820Y-87606498D01*
X139869506Y-87665463D01*
X139772815Y-87744815D01*
X139693463Y-87841506D01*
X139669680Y-87886000D01*
X139394043Y-87886000D01*
X139290637Y-87731241D01*
X139090759Y-87531363D01*
X138858241Y-87376000D01*
X139090759Y-87220637D01*
X139290637Y-87020759D01*
X139394043Y-86866000D01*
X139669680Y-86866000D01*
X139693463Y-86910494D01*
X139772815Y-87007185D01*
X139869506Y-87086537D01*
X139979820Y-87145502D01*
X140099518Y-87181812D01*
X140224000Y-87194072D01*
X140724000Y-87194072D01*
X140848482Y-87181812D01*
X140968180Y-87145502D01*
X141078494Y-87086537D01*
X141175185Y-87007185D01*
X141254537Y-86910494D01*
X141313502Y-86800180D01*
X141349812Y-86680482D01*
X141362072Y-86556000D01*
X141362072Y-85656000D01*
X141349812Y-85531518D01*
X141313502Y-85411820D01*
X141254537Y-85301506D01*
X141175185Y-85204815D01*
X141078494Y-85125463D01*
X140968180Y-85066498D01*
X140848482Y-85030188D01*
X140724000Y-85017928D01*
X140224000Y-85017928D01*
X140099518Y-85030188D01*
X139979820Y-85066498D01*
X139869506Y-85125463D01*
X139772815Y-85204815D01*
X139693463Y-85301506D01*
X139669680Y-85346000D01*
X139394043Y-85346000D01*
X139290637Y-85191241D01*
X139090759Y-84991363D01*
X138858241Y-84836000D01*
X139090759Y-84680637D01*
X139290637Y-84480759D01*
X139394043Y-84326000D01*
X139669680Y-84326000D01*
X139693463Y-84370494D01*
X139772815Y-84467185D01*
X139869506Y-84546537D01*
X139979820Y-84605502D01*
X140099518Y-84641812D01*
X140224000Y-84654072D01*
X140724000Y-84654072D01*
X140848482Y-84641812D01*
X140968180Y-84605502D01*
X141078494Y-84546537D01*
X141175185Y-84467185D01*
X141254537Y-84370494D01*
X141313502Y-84260180D01*
X141349812Y-84140482D01*
X141362072Y-84016000D01*
X141362072Y-83116000D01*
X141349812Y-82991518D01*
X141313502Y-82871820D01*
X141254537Y-82761506D01*
X141175185Y-82664815D01*
X141078494Y-82585463D01*
X140968180Y-82526498D01*
X140848482Y-82490188D01*
X140724000Y-82477928D01*
X140224000Y-82477928D01*
X140099518Y-82490188D01*
X139979820Y-82526498D01*
X139869506Y-82585463D01*
X139772815Y-82664815D01*
X139693463Y-82761506D01*
X139669680Y-82806000D01*
X139394043Y-82806000D01*
X139290637Y-82651241D01*
X139090759Y-82451363D01*
X138858241Y-82296000D01*
X139090759Y-82140637D01*
X139290637Y-81940759D01*
X139394043Y-81786000D01*
X139669680Y-81786000D01*
X139693463Y-81830494D01*
X139772815Y-81927185D01*
X139869506Y-82006537D01*
X139979820Y-82065502D01*
X140099518Y-82101812D01*
X140224000Y-82114072D01*
X140724000Y-82114072D01*
X140848482Y-82101812D01*
X140968180Y-82065502D01*
X141078494Y-82006537D01*
X141175185Y-81927185D01*
X141254537Y-81830494D01*
X141313502Y-81720180D01*
X141349812Y-81600482D01*
X141362072Y-81476000D01*
X141362072Y-81429513D01*
X141421546Y-81318247D01*
X141465003Y-81174986D01*
X141479677Y-81026000D01*
X141465003Y-80877014D01*
X141421546Y-80733753D01*
X141362072Y-80622487D01*
X141362072Y-80576000D01*
X141349812Y-80451518D01*
X141313502Y-80331820D01*
X141254537Y-80221506D01*
X141175185Y-80124815D01*
X141078494Y-80045463D01*
X140968180Y-79986498D01*
X140848482Y-79950188D01*
X140724000Y-79937928D01*
X140224000Y-79937928D01*
X140099518Y-79950188D01*
X139979820Y-79986498D01*
X139869506Y-80045463D01*
X139772815Y-80124815D01*
X139693463Y-80221506D01*
X139669680Y-80266000D01*
X139394043Y-80266000D01*
X139290637Y-80111241D01*
X139092039Y-79912643D01*
X139100482Y-79911812D01*
X139220180Y-79875502D01*
X139330494Y-79816537D01*
X139427185Y-79737185D01*
X139506537Y-79640494D01*
X139565502Y-79530180D01*
X139601812Y-79410482D01*
X139614072Y-79286000D01*
X139614072Y-79246000D01*
X139669680Y-79246000D01*
X139693463Y-79290494D01*
X139772815Y-79387185D01*
X139869506Y-79466537D01*
X139979820Y-79525502D01*
X140099518Y-79561812D01*
X140224000Y-79574072D01*
X140724000Y-79574072D01*
X140848482Y-79561812D01*
X140968180Y-79525502D01*
X141078494Y-79466537D01*
X141175185Y-79387185D01*
X141254537Y-79290494D01*
X141313502Y-79180180D01*
X141349812Y-79060482D01*
X141362072Y-78936000D01*
X141362072Y-78036000D01*
X141349812Y-77911518D01*
X141313502Y-77791820D01*
X141254537Y-77681506D01*
X141205702Y-77622000D01*
X144258764Y-77622000D01*
X144279414Y-77672099D01*
G37*
X144279414Y-77672099D02*
X144283797Y-77680205D01*
X144379324Y-77853966D01*
X144413130Y-77903338D01*
X144446221Y-77953144D01*
X144452095Y-77960245D01*
X144579552Y-78112142D01*
X144622263Y-78153968D01*
X144664441Y-78196442D01*
X144671583Y-78202266D01*
X144826116Y-78326515D01*
X144876170Y-78359269D01*
X144925765Y-78392722D01*
X144933901Y-78397048D01*
X145109625Y-78488914D01*
X145165078Y-78511318D01*
X145220233Y-78534503D01*
X145229055Y-78537166D01*
X145419276Y-78593151D01*
X145478010Y-78604355D01*
X145536633Y-78616389D01*
X145545805Y-78617288D01*
X145743277Y-78635259D01*
X145803094Y-78634841D01*
X145862911Y-78635259D01*
X145872083Y-78634359D01*
X146069284Y-78613632D01*
X146127834Y-78601613D01*
X146186639Y-78590396D01*
X146195461Y-78587732D01*
X146384882Y-78529097D01*
X146440009Y-78505924D01*
X146495492Y-78483507D01*
X146503629Y-78479181D01*
X146678052Y-78384870D01*
X146727636Y-78351425D01*
X146777699Y-78318665D01*
X146784840Y-78312841D01*
X146937624Y-78186446D01*
X146979744Y-78144031D01*
X147022513Y-78102149D01*
X147028387Y-78095048D01*
X147153711Y-77941386D01*
X147186803Y-77891577D01*
X147220610Y-77842205D01*
X147224993Y-77834098D01*
X147318084Y-77659020D01*
X147333342Y-77622000D01*
X150386298Y-77622000D01*
X150337463Y-77681506D01*
X150278498Y-77791820D01*
X150242188Y-77911518D01*
X150229928Y-78036000D01*
X150229928Y-78936000D01*
X150242188Y-79060482D01*
X150278498Y-79180180D01*
X150337463Y-79290494D01*
X150416815Y-79387185D01*
X150513506Y-79466537D01*
X150623820Y-79525502D01*
X150743518Y-79561812D01*
X150868000Y-79574072D01*
X151368000Y-79574072D01*
X151492482Y-79561812D01*
X151612180Y-79525502D01*
X151722494Y-79466537D01*
X151819185Y-79387185D01*
X151898537Y-79290494D01*
X151922320Y-79246000D01*
X152197957Y-79246000D01*
X152301363Y-79400759D01*
X152501241Y-79600637D01*
X152733759Y-79756000D01*
X152501241Y-79911363D01*
X152301363Y-80111241D01*
X152197957Y-80266000D01*
X151922320Y-80266000D01*
X151898537Y-80221506D01*
X151819185Y-80124815D01*
X151722494Y-80045463D01*
X151612180Y-79986498D01*
X151492482Y-79950188D01*
X151368000Y-79937928D01*
X150868000Y-79937928D01*
X150743518Y-79950188D01*
X150623820Y-79986498D01*
X150513506Y-80045463D01*
X150416815Y-80124815D01*
X150337463Y-80221506D01*
X150278498Y-80331820D01*
X150242188Y-80451518D01*
X150229928Y-80576000D01*
X150229928Y-81476000D01*
X150242188Y-81600482D01*
X150278498Y-81720180D01*
X150337463Y-81830494D01*
X150416815Y-81927185D01*
X150513506Y-82006537D01*
X150623820Y-82065502D01*
X150743518Y-82101812D01*
X150868000Y-82114072D01*
X151368000Y-82114072D01*
X151492482Y-82101812D01*
X151612180Y-82065502D01*
X151722494Y-82006537D01*
X151819185Y-81927185D01*
X151898537Y-81830494D01*
X151922320Y-81786000D01*
X152197957Y-81786000D01*
X152301363Y-81940759D01*
X152501241Y-82140637D01*
X152733759Y-82296000D01*
X152501241Y-82451363D01*
X152301363Y-82651241D01*
X152197957Y-82806000D01*
X151922320Y-82806000D01*
X151898537Y-82761506D01*
X151819185Y-82664815D01*
X151722494Y-82585463D01*
X151612180Y-82526498D01*
X151492482Y-82490188D01*
X151368000Y-82477928D01*
X150868000Y-82477928D01*
X150743518Y-82490188D01*
X150623820Y-82526498D01*
X150513506Y-82585463D01*
X150416815Y-82664815D01*
X150337463Y-82761506D01*
X150278498Y-82871820D01*
X150242188Y-82991518D01*
X150229928Y-83116000D01*
X150229928Y-84016000D01*
X150242188Y-84140482D01*
X150278498Y-84260180D01*
X150337463Y-84370494D01*
X150416815Y-84467185D01*
X150513506Y-84546537D01*
X150623820Y-84605502D01*
X150743518Y-84641812D01*
X150868000Y-84654072D01*
X151368000Y-84654072D01*
X151492482Y-84641812D01*
X151612180Y-84605502D01*
X151722494Y-84546537D01*
X151819185Y-84467185D01*
X151898537Y-84370494D01*
X151922320Y-84326000D01*
X152197957Y-84326000D01*
X152301363Y-84480759D01*
X152501241Y-84680637D01*
X152733759Y-84836000D01*
X152501241Y-84991363D01*
X152301363Y-85191241D01*
X152197957Y-85346000D01*
X151922320Y-85346000D01*
X151898537Y-85301506D01*
X151819185Y-85204815D01*
X151722494Y-85125463D01*
X151612180Y-85066498D01*
X151492482Y-85030188D01*
X151368000Y-85017928D01*
X150868000Y-85017928D01*
X150743518Y-85030188D01*
X150623820Y-85066498D01*
X150513506Y-85125463D01*
X150416815Y-85204815D01*
X150337463Y-85301506D01*
X150278498Y-85411820D01*
X150242188Y-85531518D01*
X150229928Y-85656000D01*
X150229928Y-86556000D01*
X150242188Y-86680482D01*
X150278498Y-86800180D01*
X150337463Y-86910494D01*
X150416815Y-87007185D01*
X150513506Y-87086537D01*
X150623820Y-87145502D01*
X150743518Y-87181812D01*
X150868000Y-87194072D01*
X151368000Y-87194072D01*
X151492482Y-87181812D01*
X151612180Y-87145502D01*
X151722494Y-87086537D01*
X151819185Y-87007185D01*
X151898537Y-86910494D01*
X151922320Y-86866000D01*
X152197957Y-86866000D01*
X152301363Y-87020759D01*
X152501241Y-87220637D01*
X152733759Y-87376000D01*
X152501241Y-87531363D01*
X152301363Y-87731241D01*
X152197957Y-87886000D01*
X151922320Y-87886000D01*
X151898537Y-87841506D01*
X151819185Y-87744815D01*
X151722494Y-87665463D01*
X151612180Y-87606498D01*
X151492482Y-87570188D01*
X151368000Y-87557928D01*
X150868000Y-87557928D01*
X150743518Y-87570188D01*
X150623820Y-87606498D01*
X150513506Y-87665463D01*
X150416815Y-87744815D01*
X150337463Y-87841506D01*
X150278498Y-87951820D01*
X150242188Y-88071518D01*
X150229928Y-88196000D01*
X150229928Y-89096000D01*
X150242188Y-89220482D01*
X150278498Y-89340180D01*
X150337463Y-89450494D01*
X150416815Y-89547185D01*
X150513506Y-89626537D01*
X150623820Y-89685502D01*
X150743518Y-89721812D01*
X150868000Y-89734072D01*
X151368000Y-89734072D01*
X151492482Y-89721812D01*
X151612180Y-89685502D01*
X151722494Y-89626537D01*
X151819185Y-89547185D01*
X151898537Y-89450494D01*
X151922320Y-89406000D01*
X152197957Y-89406000D01*
X152301363Y-89560759D01*
X152501241Y-89760637D01*
X152733759Y-89916000D01*
X152501241Y-90071363D01*
X152301363Y-90271241D01*
X152197957Y-90426000D01*
X151922320Y-90426000D01*
X151898537Y-90381506D01*
X151819185Y-90284815D01*
X151722494Y-90205463D01*
X151612180Y-90146498D01*
X151492482Y-90110188D01*
X151368000Y-90097928D01*
X150868000Y-90097928D01*
X150743518Y-90110188D01*
X150623820Y-90146498D01*
X150513506Y-90205463D01*
X150416815Y-90284815D01*
X150337463Y-90381506D01*
X150278498Y-90491820D01*
X150242188Y-90611518D01*
X150229928Y-90736000D01*
X150229928Y-91636000D01*
X150242188Y-91760482D01*
X150278498Y-91880180D01*
X150337463Y-91990494D01*
X150416815Y-92087185D01*
X150513506Y-92166537D01*
X150623820Y-92225502D01*
X150743518Y-92261812D01*
X150868000Y-92274072D01*
X151368000Y-92274072D01*
X151492482Y-92261812D01*
X151612180Y-92225502D01*
X151722494Y-92166537D01*
X151819185Y-92087185D01*
X151898537Y-91990494D01*
X151922320Y-91946000D01*
X152197957Y-91946000D01*
X152301363Y-92100759D01*
X152501241Y-92300637D01*
X152733759Y-92456000D01*
X152501241Y-92611363D01*
X152301363Y-92811241D01*
X152197957Y-92966000D01*
X151922320Y-92966000D01*
X151898537Y-92921506D01*
X151819185Y-92824815D01*
X151722494Y-92745463D01*
X151612180Y-92686498D01*
X151492482Y-92650188D01*
X151368000Y-92637928D01*
X150868000Y-92637928D01*
X150743518Y-92650188D01*
X150623820Y-92686498D01*
X150513506Y-92745463D01*
X150416815Y-92824815D01*
X150337463Y-92921506D01*
X150278498Y-93031820D01*
X150242188Y-93151518D01*
X150229928Y-93276000D01*
X150229928Y-94176000D01*
X150242188Y-94300482D01*
X150278498Y-94420180D01*
X150337463Y-94530494D01*
X150416815Y-94627185D01*
X150513506Y-94706537D01*
X150623820Y-94765502D01*
X150743518Y-94801812D01*
X150868000Y-94814072D01*
X151368000Y-94814072D01*
X151492482Y-94801812D01*
X151612180Y-94765502D01*
X151722494Y-94706537D01*
X151819185Y-94627185D01*
X151898537Y-94530494D01*
X151922320Y-94486000D01*
X152197957Y-94486000D01*
X152301363Y-94640759D01*
X152501241Y-94840637D01*
X152733759Y-94996000D01*
X152501241Y-95151363D01*
X152301363Y-95351241D01*
X152197957Y-95506000D01*
X151922320Y-95506000D01*
X151898537Y-95461506D01*
X151819185Y-95364815D01*
X151722494Y-95285463D01*
X151612180Y-95226498D01*
X151492482Y-95190188D01*
X151368000Y-95177928D01*
X150868000Y-95177928D01*
X150743518Y-95190188D01*
X150623820Y-95226498D01*
X150513506Y-95285463D01*
X150416815Y-95364815D01*
X150337463Y-95461506D01*
X150278498Y-95571820D01*
X150242188Y-95691518D01*
X150229928Y-95816000D01*
X150229928Y-96716000D01*
X150242188Y-96840482D01*
X150278498Y-96960180D01*
X150337463Y-97070494D01*
X150416815Y-97167185D01*
X150513506Y-97246537D01*
X150623820Y-97305502D01*
X150743518Y-97341812D01*
X150868000Y-97354072D01*
X151368000Y-97354072D01*
X151492482Y-97341812D01*
X151612180Y-97305502D01*
X151722494Y-97246537D01*
X151819185Y-97167185D01*
X151898537Y-97070494D01*
X151922320Y-97026000D01*
X152197957Y-97026000D01*
X152301363Y-97180759D01*
X152501241Y-97380637D01*
X152733759Y-97536000D01*
X152501241Y-97691363D01*
X152301363Y-97891241D01*
X152197957Y-98046000D01*
X151922320Y-98046000D01*
X151898537Y-98001506D01*
X151819185Y-97904815D01*
X151722494Y-97825463D01*
X151612180Y-97766498D01*
X151492482Y-97730188D01*
X151368000Y-97717928D01*
X150868000Y-97717928D01*
X150743518Y-97730188D01*
X150623820Y-97766498D01*
X150513506Y-97825463D01*
X150416815Y-97904815D01*
X150337463Y-98001506D01*
X150278498Y-98111820D01*
X150242188Y-98231518D01*
X150229928Y-98356000D01*
X150229928Y-99256000D01*
X150242188Y-99380482D01*
X150278498Y-99500180D01*
X150337463Y-99610494D01*
X150416815Y-99707185D01*
X150513506Y-99786537D01*
X150623820Y-99845502D01*
X150743518Y-99881812D01*
X150868000Y-99894072D01*
X151368000Y-99894072D01*
X151492482Y-99881812D01*
X151612180Y-99845502D01*
X151722494Y-99786537D01*
X151819185Y-99707185D01*
X151898537Y-99610494D01*
X151922320Y-99566000D01*
X152197957Y-99566000D01*
X152301363Y-99720759D01*
X152501241Y-99920637D01*
X152733759Y-100076000D01*
X152501241Y-100231363D01*
X152301363Y-100431241D01*
X152197957Y-100586000D01*
X151922320Y-100586000D01*
X151898537Y-100541506D01*
X151819185Y-100444815D01*
X151722494Y-100365463D01*
X151612180Y-100306498D01*
X151492482Y-100270188D01*
X151368000Y-100257928D01*
X150868000Y-100257928D01*
X150743518Y-100270188D01*
X150623820Y-100306498D01*
X150513506Y-100365463D01*
X150416815Y-100444815D01*
X150337463Y-100541506D01*
X150278498Y-100651820D01*
X150242188Y-100771518D01*
X150229928Y-100896000D01*
X150229928Y-101796000D01*
X150242188Y-101920482D01*
X150278498Y-102040180D01*
X150337463Y-102150494D01*
X150416815Y-102247185D01*
X150513506Y-102326537D01*
X150623820Y-102385502D01*
X150743518Y-102421812D01*
X150868000Y-102434072D01*
X151368000Y-102434072D01*
X151492482Y-102421812D01*
X151612180Y-102385502D01*
X151722494Y-102326537D01*
X151819185Y-102247185D01*
X151898537Y-102150494D01*
X151922320Y-102106000D01*
X152197957Y-102106000D01*
X152301363Y-102260759D01*
X152501241Y-102460637D01*
X152733759Y-102616000D01*
X152501241Y-102771363D01*
X152301363Y-102971241D01*
X152197957Y-103126000D01*
X151922320Y-103126000D01*
X151898537Y-103081506D01*
X151819185Y-102984815D01*
X151722494Y-102905463D01*
X151612180Y-102846498D01*
X151492482Y-102810188D01*
X151368000Y-102797928D01*
X150868000Y-102797928D01*
X150743518Y-102810188D01*
X150623820Y-102846498D01*
X150513506Y-102905463D01*
X150416815Y-102984815D01*
X150337463Y-103081506D01*
X150278498Y-103191820D01*
X150242188Y-103311518D01*
X150229928Y-103436000D01*
X150229928Y-104336000D01*
X150242188Y-104460482D01*
X150278498Y-104580180D01*
X150337463Y-104690494D01*
X150416815Y-104787185D01*
X150513506Y-104866537D01*
X150623820Y-104925502D01*
X150743518Y-104961812D01*
X150868000Y-104974072D01*
X151368000Y-104974072D01*
X151492482Y-104961812D01*
X151612180Y-104925502D01*
X151722494Y-104866537D01*
X151819185Y-104787185D01*
X151898537Y-104690494D01*
X151922320Y-104646000D01*
X152197957Y-104646000D01*
X152301363Y-104800759D01*
X152501241Y-105000637D01*
X152733759Y-105156000D01*
X152501241Y-105311363D01*
X152301363Y-105511241D01*
X152197957Y-105666000D01*
X151934320Y-105666000D01*
X151910537Y-105621506D01*
X151831185Y-105524815D01*
X151734494Y-105445463D01*
X151624180Y-105386498D01*
X151504482Y-105350188D01*
X151380000Y-105337928D01*
X150880000Y-105337928D01*
X150755518Y-105350188D01*
X150635820Y-105386498D01*
X150525506Y-105445463D01*
X150428815Y-105524815D01*
X150349463Y-105621506D01*
X150290498Y-105731820D01*
X150254188Y-105851518D01*
X150241928Y-105976000D01*
X150241928Y-106876000D01*
X150254188Y-107000482D01*
X150290498Y-107120180D01*
X150349463Y-107230494D01*
X150428815Y-107327185D01*
X150525506Y-107406537D01*
X150635820Y-107465502D01*
X150755518Y-107501812D01*
X150880000Y-107514072D01*
X151380000Y-107514072D01*
X151504482Y-107501812D01*
X151624180Y-107465502D01*
X151734494Y-107406537D01*
X151831185Y-107327185D01*
X151910537Y-107230494D01*
X151934320Y-107186000D01*
X152197957Y-107186000D01*
X152301363Y-107340759D01*
X152501241Y-107540637D01*
X152733759Y-107696000D01*
X152501241Y-107851363D01*
X152301363Y-108051241D01*
X152197957Y-108206000D01*
X151922320Y-108206000D01*
X151898537Y-108161506D01*
X151819185Y-108064815D01*
X151722494Y-107985463D01*
X151612180Y-107926498D01*
X151492482Y-107890188D01*
X151368000Y-107877928D01*
X150868000Y-107877928D01*
X150743518Y-107890188D01*
X150623820Y-107926498D01*
X150513506Y-107985463D01*
X150416815Y-108064815D01*
X150337463Y-108161506D01*
X150278498Y-108271820D01*
X150242188Y-108391518D01*
X150229928Y-108516000D01*
X150229928Y-109416000D01*
X150242188Y-109540482D01*
X150278498Y-109660180D01*
X150337463Y-109770494D01*
X150416815Y-109867185D01*
X150513506Y-109946537D01*
X150623820Y-110005502D01*
X150743518Y-110041812D01*
X150868000Y-110054072D01*
X151368000Y-110054072D01*
X151492482Y-110041812D01*
X151612180Y-110005502D01*
X151722494Y-109946537D01*
X151819185Y-109867185D01*
X151898537Y-109770494D01*
X151922320Y-109726000D01*
X152197957Y-109726000D01*
X152301363Y-109880759D01*
X152501241Y-110080637D01*
X152733759Y-110236000D01*
X152501241Y-110391363D01*
X152301363Y-110591241D01*
X152197957Y-110746000D01*
X151934320Y-110746000D01*
X151910537Y-110701506D01*
X151831185Y-110604815D01*
X151734494Y-110525463D01*
X151624180Y-110466498D01*
X151504482Y-110430188D01*
X151380000Y-110417928D01*
X150880000Y-110417928D01*
X150755518Y-110430188D01*
X150635820Y-110466498D01*
X150525506Y-110525463D01*
X150428815Y-110604815D01*
X150349463Y-110701506D01*
X150290498Y-110811820D01*
X150254188Y-110931518D01*
X150241928Y-111056000D01*
X150241928Y-111956000D01*
X150254188Y-112080482D01*
X150290498Y-112200180D01*
X150349463Y-112310494D01*
X150398298Y-112370000D01*
X141217702Y-112370000D01*
X141266537Y-112310494D01*
X141325502Y-112200180D01*
X141361812Y-112080482D01*
X141374072Y-111956000D01*
X141374072Y-111056000D01*
X141361812Y-110931518D01*
X141325502Y-110811820D01*
X141266537Y-110701506D01*
X141187185Y-110604815D01*
X141090494Y-110525463D01*
X140980180Y-110466498D01*
X140860482Y-110430188D01*
X140736000Y-110417928D01*
X140236000Y-110417928D01*
X140111518Y-110430188D01*
X139991820Y-110466498D01*
X139881506Y-110525463D01*
X139784815Y-110604815D01*
X139705463Y-110701506D01*
X139681680Y-110746000D01*
X139394043Y-110746000D01*
X139290637Y-110591241D01*
X139090759Y-110391363D01*
X138858241Y-110236000D01*
X139090759Y-110080637D01*
X139290637Y-109880759D01*
X139394043Y-109726000D01*
X139669680Y-109726000D01*
X139693463Y-109770494D01*
X139772815Y-109867185D01*
X139869506Y-109946537D01*
X139979820Y-110005502D01*
X140099518Y-110041812D01*
X140224000Y-110054072D01*
X140724000Y-110054072D01*
X140848482Y-110041812D01*
X140968180Y-110005502D01*
X141078494Y-109946537D01*
X141175185Y-109867185D01*
X141254537Y-109770494D01*
X141313502Y-109660180D01*
X141349812Y-109540482D01*
X141362072Y-109416000D01*
X141362072Y-108516000D01*
X141349812Y-108391518D01*
X141313502Y-108271820D01*
X141254537Y-108161506D01*
X141175185Y-108064815D01*
X141078494Y-107985463D01*
X140968180Y-107926498D01*
X140848482Y-107890188D01*
X140724000Y-107877928D01*
X140224000Y-107877928D01*
X140099518Y-107890188D01*
X139979820Y-107926498D01*
X139869506Y-107985463D01*
X139772815Y-108064815D01*
X139693463Y-108161506D01*
X139669680Y-108206000D01*
X139394043Y-108206000D01*
X139290637Y-108051241D01*
X139090759Y-107851363D01*
X138858241Y-107696000D01*
X139090759Y-107540637D01*
X139290637Y-107340759D01*
X139394043Y-107186000D01*
X139669680Y-107186000D01*
X139693463Y-107230494D01*
X139772815Y-107327185D01*
X139869506Y-107406537D01*
X139979820Y-107465502D01*
X140099518Y-107501812D01*
X140224000Y-107514072D01*
X140724000Y-107514072D01*
X140848482Y-107501812D01*
X140968180Y-107465502D01*
X141078494Y-107406537D01*
X141175185Y-107327185D01*
X141254537Y-107230494D01*
X141313502Y-107120180D01*
X141349812Y-107000482D01*
X141362072Y-106876000D01*
X141362072Y-105976000D01*
X141349812Y-105851518D01*
X141313502Y-105731820D01*
X141254537Y-105621506D01*
X141175185Y-105524815D01*
X141078494Y-105445463D01*
X140968180Y-105386498D01*
X140848482Y-105350188D01*
X140724000Y-105337928D01*
X140224000Y-105337928D01*
X140099518Y-105350188D01*
X139979820Y-105386498D01*
X139869506Y-105445463D01*
X139772815Y-105524815D01*
X139693463Y-105621506D01*
X139669680Y-105666000D01*
X139394043Y-105666000D01*
X139290637Y-105511241D01*
X139090759Y-105311363D01*
X138858241Y-105156000D01*
X139090759Y-105000637D01*
X139290637Y-104800759D01*
X139394043Y-104646000D01*
X139669680Y-104646000D01*
X139693463Y-104690494D01*
X139772815Y-104787185D01*
X139869506Y-104866537D01*
X139979820Y-104925502D01*
X140099518Y-104961812D01*
X140224000Y-104974072D01*
X140724000Y-104974072D01*
X140848482Y-104961812D01*
X140968180Y-104925502D01*
X141078494Y-104866537D01*
X141175185Y-104787185D01*
X141254537Y-104690494D01*
X141313502Y-104580180D01*
X141349812Y-104460482D01*
X141362072Y-104336000D01*
X141362072Y-103436000D01*
X141349812Y-103311518D01*
X141313502Y-103191820D01*
X141254537Y-103081506D01*
X141175185Y-102984815D01*
X141078494Y-102905463D01*
X140968180Y-102846498D01*
X140848482Y-102810188D01*
X140724000Y-102797928D01*
X140224000Y-102797928D01*
X140099518Y-102810188D01*
X139979820Y-102846498D01*
X139869506Y-102905463D01*
X139772815Y-102984815D01*
X139693463Y-103081506D01*
X139669680Y-103126000D01*
X139394043Y-103126000D01*
X139290637Y-102971241D01*
X139090759Y-102771363D01*
X138858241Y-102616000D01*
X139090759Y-102460637D01*
X139290637Y-102260759D01*
X139394043Y-102106000D01*
X139669680Y-102106000D01*
X139693463Y-102150494D01*
X139772815Y-102247185D01*
X139869506Y-102326537D01*
X139979820Y-102385502D01*
X140099518Y-102421812D01*
X140224000Y-102434072D01*
X140724000Y-102434072D01*
X140848482Y-102421812D01*
X140968180Y-102385502D01*
X141078494Y-102326537D01*
X141175185Y-102247185D01*
X141254537Y-102150494D01*
X141313502Y-102040180D01*
X141349812Y-101920482D01*
X141362072Y-101796000D01*
X141362072Y-100896000D01*
X141349812Y-100771518D01*
X141313502Y-100651820D01*
X141254537Y-100541506D01*
X141175185Y-100444815D01*
X141078494Y-100365463D01*
X140968180Y-100306498D01*
X140848482Y-100270188D01*
X140724000Y-100257928D01*
X140224000Y-100257928D01*
X140099518Y-100270188D01*
X139979820Y-100306498D01*
X139869506Y-100365463D01*
X139772815Y-100444815D01*
X139693463Y-100541506D01*
X139669680Y-100586000D01*
X139394043Y-100586000D01*
X139290637Y-100431241D01*
X139090759Y-100231363D01*
X138858241Y-100076000D01*
X139090759Y-99920637D01*
X139290637Y-99720759D01*
X139394043Y-99566000D01*
X139669680Y-99566000D01*
X139693463Y-99610494D01*
X139772815Y-99707185D01*
X139869506Y-99786537D01*
X139979820Y-99845502D01*
X140099518Y-99881812D01*
X140224000Y-99894072D01*
X140724000Y-99894072D01*
X140848482Y-99881812D01*
X140968180Y-99845502D01*
X141078494Y-99786537D01*
X141175185Y-99707185D01*
X141254537Y-99610494D01*
X141313502Y-99500180D01*
X141349812Y-99380482D01*
X141362072Y-99256000D01*
X141362072Y-98356000D01*
X141349812Y-98231518D01*
X141313502Y-98111820D01*
X141254537Y-98001506D01*
X141175185Y-97904815D01*
X141078494Y-97825463D01*
X140968180Y-97766498D01*
X140848482Y-97730188D01*
X140724000Y-97717928D01*
X140224000Y-97717928D01*
X140099518Y-97730188D01*
X139979820Y-97766498D01*
X139869506Y-97825463D01*
X139772815Y-97904815D01*
X139693463Y-98001506D01*
X139669680Y-98046000D01*
X139394043Y-98046000D01*
X139290637Y-97891241D01*
X139090759Y-97691363D01*
X138858241Y-97536000D01*
X139090759Y-97380637D01*
X139290637Y-97180759D01*
X139394043Y-97026000D01*
X139669680Y-97026000D01*
X139693463Y-97070494D01*
X139772815Y-97167185D01*
X139869506Y-97246537D01*
X139979820Y-97305502D01*
X140099518Y-97341812D01*
X140224000Y-97354072D01*
X140724000Y-97354072D01*
X140848482Y-97341812D01*
X140968180Y-97305502D01*
X141078494Y-97246537D01*
X141175185Y-97167185D01*
X141254537Y-97070494D01*
X141313502Y-96960180D01*
X141349812Y-96840482D01*
X141362072Y-96716000D01*
X141362072Y-95816000D01*
X141349812Y-95691518D01*
X141313502Y-95571820D01*
X141254537Y-95461506D01*
X141175185Y-95364815D01*
X141078494Y-95285463D01*
X140968180Y-95226498D01*
X140848482Y-95190188D01*
X140724000Y-95177928D01*
X140224000Y-95177928D01*
X140099518Y-95190188D01*
X139979820Y-95226498D01*
X139869506Y-95285463D01*
X139772815Y-95364815D01*
X139693463Y-95461506D01*
X139669680Y-95506000D01*
X139394043Y-95506000D01*
X139290637Y-95351241D01*
X139090759Y-95151363D01*
X138858241Y-94996000D01*
X139090759Y-94840637D01*
X139290637Y-94640759D01*
X139394043Y-94486000D01*
X139669680Y-94486000D01*
X139693463Y-94530494D01*
X139772815Y-94627185D01*
X139869506Y-94706537D01*
X139979820Y-94765502D01*
X140099518Y-94801812D01*
X140224000Y-94814072D01*
X140724000Y-94814072D01*
X140848482Y-94801812D01*
X140968180Y-94765502D01*
X141078494Y-94706537D01*
X141175185Y-94627185D01*
X141254537Y-94530494D01*
X141313502Y-94420180D01*
X141349812Y-94300482D01*
X141362072Y-94176000D01*
X141362072Y-93276000D01*
X141349812Y-93151518D01*
X141313502Y-93031820D01*
X141254537Y-92921506D01*
X141175185Y-92824815D01*
X141078494Y-92745463D01*
X140968180Y-92686498D01*
X140848482Y-92650188D01*
X140724000Y-92637928D01*
X140224000Y-92637928D01*
X140099518Y-92650188D01*
X139979820Y-92686498D01*
X139869506Y-92745463D01*
X139772815Y-92824815D01*
X139693463Y-92921506D01*
X139669680Y-92966000D01*
X139394043Y-92966000D01*
X139290637Y-92811241D01*
X139090759Y-92611363D01*
X138858241Y-92456000D01*
X139090759Y-92300637D01*
X139290637Y-92100759D01*
X139394043Y-91946000D01*
X139669680Y-91946000D01*
X139693463Y-91990494D01*
X139772815Y-92087185D01*
X139869506Y-92166537D01*
X139979820Y-92225502D01*
X140099518Y-92261812D01*
X140224000Y-92274072D01*
X140724000Y-92274072D01*
X140848482Y-92261812D01*
X140968180Y-92225502D01*
X141078494Y-92166537D01*
X141175185Y-92087185D01*
X141254537Y-91990494D01*
X141313502Y-91880180D01*
X141349812Y-91760482D01*
X141362072Y-91636000D01*
X141362072Y-90736000D01*
X141349812Y-90611518D01*
X141313502Y-90491820D01*
X141254537Y-90381506D01*
X141175185Y-90284815D01*
X141078494Y-90205463D01*
X140968180Y-90146498D01*
X140848482Y-90110188D01*
X140724000Y-90097928D01*
X140224000Y-90097928D01*
X140099518Y-90110188D01*
X139979820Y-90146498D01*
X139869506Y-90205463D01*
X139772815Y-90284815D01*
X139693463Y-90381506D01*
X139669680Y-90426000D01*
X139394043Y-90426000D01*
X139290637Y-90271241D01*
X139090759Y-90071363D01*
X138858241Y-89916000D01*
X139090759Y-89760637D01*
X139290637Y-89560759D01*
X139394043Y-89406000D01*
X139669680Y-89406000D01*
X139693463Y-89450494D01*
X139772815Y-89547185D01*
X139869506Y-89626537D01*
X139979820Y-89685502D01*
X140099518Y-89721812D01*
X140224000Y-89734072D01*
X140724000Y-89734072D01*
X140848482Y-89721812D01*
X140968180Y-89685502D01*
X141078494Y-89626537D01*
X141175185Y-89547185D01*
X141254537Y-89450494D01*
X141313502Y-89340180D01*
X141349812Y-89220482D01*
X141362072Y-89096000D01*
X141362072Y-88196000D01*
X141349812Y-88071518D01*
X141313502Y-87951820D01*
X141254537Y-87841506D01*
X141175185Y-87744815D01*
X141078494Y-87665463D01*
X140968180Y-87606498D01*
X140848482Y-87570188D01*
X140724000Y-87557928D01*
X140224000Y-87557928D01*
X140099518Y-87570188D01*
X139979820Y-87606498D01*
X139869506Y-87665463D01*
X139772815Y-87744815D01*
X139693463Y-87841506D01*
X139669680Y-87886000D01*
X139394043Y-87886000D01*
X139290637Y-87731241D01*
X139090759Y-87531363D01*
X138858241Y-87376000D01*
X139090759Y-87220637D01*
X139290637Y-87020759D01*
X139394043Y-86866000D01*
X139669680Y-86866000D01*
X139693463Y-86910494D01*
X139772815Y-87007185D01*
X139869506Y-87086537D01*
X139979820Y-87145502D01*
X140099518Y-87181812D01*
X140224000Y-87194072D01*
X140724000Y-87194072D01*
X140848482Y-87181812D01*
X140968180Y-87145502D01*
X141078494Y-87086537D01*
X141175185Y-87007185D01*
X141254537Y-86910494D01*
X141313502Y-86800180D01*
X141349812Y-86680482D01*
X141362072Y-86556000D01*
X141362072Y-85656000D01*
X141349812Y-85531518D01*
X141313502Y-85411820D01*
X141254537Y-85301506D01*
X141175185Y-85204815D01*
X141078494Y-85125463D01*
X140968180Y-85066498D01*
X140848482Y-85030188D01*
X140724000Y-85017928D01*
X140224000Y-85017928D01*
X140099518Y-85030188D01*
X139979820Y-85066498D01*
X139869506Y-85125463D01*
X139772815Y-85204815D01*
X139693463Y-85301506D01*
X139669680Y-85346000D01*
X139394043Y-85346000D01*
X139290637Y-85191241D01*
X139090759Y-84991363D01*
X138858241Y-84836000D01*
X139090759Y-84680637D01*
X139290637Y-84480759D01*
X139394043Y-84326000D01*
X139669680Y-84326000D01*
X139693463Y-84370494D01*
X139772815Y-84467185D01*
X139869506Y-84546537D01*
X139979820Y-84605502D01*
X140099518Y-84641812D01*
X140224000Y-84654072D01*
X140724000Y-84654072D01*
X140848482Y-84641812D01*
X140968180Y-84605502D01*
X141078494Y-84546537D01*
X141175185Y-84467185D01*
X141254537Y-84370494D01*
X141313502Y-84260180D01*
X141349812Y-84140482D01*
X141362072Y-84016000D01*
X141362072Y-83116000D01*
X141349812Y-82991518D01*
X141313502Y-82871820D01*
X141254537Y-82761506D01*
X141175185Y-82664815D01*
X141078494Y-82585463D01*
X140968180Y-82526498D01*
X140848482Y-82490188D01*
X140724000Y-82477928D01*
X140224000Y-82477928D01*
X140099518Y-82490188D01*
X139979820Y-82526498D01*
X139869506Y-82585463D01*
X139772815Y-82664815D01*
X139693463Y-82761506D01*
X139669680Y-82806000D01*
X139394043Y-82806000D01*
X139290637Y-82651241D01*
X139090759Y-82451363D01*
X138858241Y-82296000D01*
X139090759Y-82140637D01*
X139290637Y-81940759D01*
X139394043Y-81786000D01*
X139669680Y-81786000D01*
X139693463Y-81830494D01*
X139772815Y-81927185D01*
X139869506Y-82006537D01*
X139979820Y-82065502D01*
X140099518Y-82101812D01*
X140224000Y-82114072D01*
X140724000Y-82114072D01*
X140848482Y-82101812D01*
X140968180Y-82065502D01*
X141078494Y-82006537D01*
X141175185Y-81927185D01*
X141254537Y-81830494D01*
X141313502Y-81720180D01*
X141349812Y-81600482D01*
X141362072Y-81476000D01*
X141362072Y-81429513D01*
X141421546Y-81318247D01*
X141465003Y-81174986D01*
X141479677Y-81026000D01*
X141465003Y-80877014D01*
X141421546Y-80733753D01*
X141362072Y-80622487D01*
X141362072Y-80576000D01*
X141349812Y-80451518D01*
X141313502Y-80331820D01*
X141254537Y-80221506D01*
X141175185Y-80124815D01*
X141078494Y-80045463D01*
X140968180Y-79986498D01*
X140848482Y-79950188D01*
X140724000Y-79937928D01*
X140224000Y-79937928D01*
X140099518Y-79950188D01*
X139979820Y-79986498D01*
X139869506Y-80045463D01*
X139772815Y-80124815D01*
X139693463Y-80221506D01*
X139669680Y-80266000D01*
X139394043Y-80266000D01*
X139290637Y-80111241D01*
X139092039Y-79912643D01*
X139100482Y-79911812D01*
X139220180Y-79875502D01*
X139330494Y-79816537D01*
X139427185Y-79737185D01*
X139506537Y-79640494D01*
X139565502Y-79530180D01*
X139601812Y-79410482D01*
X139614072Y-79286000D01*
X139614072Y-79246000D01*
X139669680Y-79246000D01*
X139693463Y-79290494D01*
X139772815Y-79387185D01*
X139869506Y-79466537D01*
X139979820Y-79525502D01*
X140099518Y-79561812D01*
X140224000Y-79574072D01*
X140724000Y-79574072D01*
X140848482Y-79561812D01*
X140968180Y-79525502D01*
X141078494Y-79466537D01*
X141175185Y-79387185D01*
X141254537Y-79290494D01*
X141313502Y-79180180D01*
X141349812Y-79060482D01*
X141362072Y-78936000D01*
X141362072Y-78036000D01*
X141349812Y-77911518D01*
X141313502Y-77791820D01*
X141254537Y-77681506D01*
X141205702Y-77622000D01*
X144258764Y-77622000D01*
X144279414Y-77672099D01*
M02*
