G04 #@! TF.GenerationSoftware,KiCad,Pcbnew,(5.1.6)-1*
G04 #@! TF.CreationDate,2020-12-06T15:05:41+11:00*
G04 #@! TF.ProjectId,EAadaptor,45416164-6170-4746-9f72-2e6b69636164,rev?*
G04 #@! TF.SameCoordinates,Original*
G04 #@! TF.FileFunction,Soldermask,Top*
G04 #@! TF.FilePolarity,Negative*
%FSLAX46Y46*%
G04 Gerber Fmt 4.6, Leading zero omitted, Abs format (unit mm)*
G04 Created by KiCad (PCBNEW (5.1.6)-1) date 2020-12-06 15:05:41*
%MOMM*%
%LPD*%
G01*
G04 APERTURE LIST*
%ADD10C,0.100000*%
%ADD11C,0.125000*%
G04 APERTURE END LIST*
D10*
G36*
X146558000Y-89916000D02*
G01*
X146050000Y-89408000D01*
X147066000Y-89408000D01*
X146558000Y-89916000D01*
G37*
X146558000Y-89916000D02*
X146050000Y-89408000D01*
X147066000Y-89408000D01*
X146558000Y-89916000D01*
G36*
X147066000Y-85344000D02*
G01*
X146050000Y-85344000D01*
X146558000Y-84836000D01*
X147066000Y-85344000D01*
G37*
X147066000Y-85344000D02*
X146050000Y-85344000D01*
X146558000Y-84836000D01*
X147066000Y-85344000D01*
G36*
X147066000Y-89408000D02*
G01*
X146050000Y-89408000D01*
X146050000Y-85344000D01*
X147066000Y-85344000D01*
X147066000Y-89408000D01*
G37*
X147066000Y-89408000D02*
X146050000Y-89408000D01*
X146050000Y-85344000D01*
X147066000Y-85344000D01*
X147066000Y-89408000D01*
D11*
X145051428Y-101548000D02*
X144451428Y-101548000D01*
X145051428Y-101290857D02*
X144737142Y-101290857D01*
X144680000Y-101319428D01*
X144651428Y-101376571D01*
X144651428Y-101462285D01*
X144680000Y-101519428D01*
X144708571Y-101548000D01*
X144651428Y-101090857D02*
X144651428Y-100862285D01*
X144451428Y-101005142D02*
X144965714Y-101005142D01*
X145022857Y-100976571D01*
X145051428Y-100919428D01*
X145051428Y-100862285D01*
X144651428Y-100748000D02*
X144651428Y-100519428D01*
X144451428Y-100662285D02*
X144965714Y-100662285D01*
X145022857Y-100633714D01*
X145051428Y-100576571D01*
X145051428Y-100519428D01*
X144651428Y-100319428D02*
X145251428Y-100319428D01*
X144680000Y-100319428D02*
X144651428Y-100262285D01*
X144651428Y-100148000D01*
X144680000Y-100090857D01*
X144708571Y-100062285D01*
X144765714Y-100033714D01*
X144937142Y-100033714D01*
X144994285Y-100062285D01*
X145022857Y-100090857D01*
X145051428Y-100148000D01*
X145051428Y-100262285D01*
X145022857Y-100319428D01*
X145022857Y-99805142D02*
X145051428Y-99748000D01*
X145051428Y-99633714D01*
X145022857Y-99576571D01*
X144965714Y-99548000D01*
X144937142Y-99548000D01*
X144880000Y-99576571D01*
X144851428Y-99633714D01*
X144851428Y-99719428D01*
X144822857Y-99776571D01*
X144765714Y-99805142D01*
X144737142Y-99805142D01*
X144680000Y-99776571D01*
X144651428Y-99719428D01*
X144651428Y-99633714D01*
X144680000Y-99576571D01*
X144994285Y-99290857D02*
X145022857Y-99262285D01*
X145051428Y-99290857D01*
X145022857Y-99319428D01*
X144994285Y-99290857D01*
X145051428Y-99290857D01*
X144680000Y-99290857D02*
X144708571Y-99262285D01*
X144737142Y-99290857D01*
X144708571Y-99319428D01*
X144680000Y-99290857D01*
X144737142Y-99290857D01*
X144422857Y-98576571D02*
X145194285Y-99090857D01*
X144422857Y-97948000D02*
X145194285Y-98462285D01*
X144651428Y-97748000D02*
X145251428Y-97748000D01*
X144680000Y-97748000D02*
X144651428Y-97690857D01*
X144651428Y-97576571D01*
X144680000Y-97519428D01*
X144708571Y-97490857D01*
X144765714Y-97462285D01*
X144937142Y-97462285D01*
X144994285Y-97490857D01*
X145022857Y-97519428D01*
X145051428Y-97576571D01*
X145051428Y-97690857D01*
X145022857Y-97748000D01*
X145022857Y-96948000D02*
X145051428Y-97005142D01*
X145051428Y-97119428D01*
X145022857Y-97176571D01*
X144994285Y-97205142D01*
X144937142Y-97233714D01*
X144765714Y-97233714D01*
X144708571Y-97205142D01*
X144680000Y-97176571D01*
X144651428Y-97119428D01*
X144651428Y-97005142D01*
X144680000Y-96948000D01*
X145051428Y-96690857D02*
X144451428Y-96690857D01*
X144680000Y-96690857D02*
X144651428Y-96633714D01*
X144651428Y-96519428D01*
X144680000Y-96462285D01*
X144708571Y-96433714D01*
X144765714Y-96405142D01*
X144937142Y-96405142D01*
X144994285Y-96433714D01*
X145022857Y-96462285D01*
X145051428Y-96519428D01*
X145051428Y-96633714D01*
X145022857Y-96690857D01*
X144994285Y-96148000D02*
X145022857Y-96119428D01*
X145051428Y-96148000D01*
X145022857Y-96176571D01*
X144994285Y-96148000D01*
X145051428Y-96148000D01*
X145051428Y-95862285D02*
X144451428Y-95862285D01*
X145051428Y-95605142D02*
X144737142Y-95605142D01*
X144680000Y-95633714D01*
X144651428Y-95690857D01*
X144651428Y-95776571D01*
X144680000Y-95833714D01*
X144708571Y-95862285D01*
X145022857Y-95090857D02*
X145051428Y-95148000D01*
X145051428Y-95262285D01*
X145022857Y-95319428D01*
X144965714Y-95348000D01*
X144737142Y-95348000D01*
X144680000Y-95319428D01*
X144651428Y-95262285D01*
X144651428Y-95148000D01*
X144680000Y-95090857D01*
X144737142Y-95062285D01*
X144794285Y-95062285D01*
X144851428Y-95348000D01*
X144651428Y-94548000D02*
X145137142Y-94548000D01*
X145194285Y-94576571D01*
X145222857Y-94605142D01*
X145251428Y-94662285D01*
X145251428Y-94748000D01*
X145222857Y-94805142D01*
X145022857Y-94548000D02*
X145051428Y-94605142D01*
X145051428Y-94719428D01*
X145022857Y-94776571D01*
X144994285Y-94805142D01*
X144937142Y-94833714D01*
X144765714Y-94833714D01*
X144708571Y-94805142D01*
X144680000Y-94776571D01*
X144651428Y-94719428D01*
X144651428Y-94605142D01*
X144680000Y-94548000D01*
X145051428Y-94005142D02*
X144737142Y-94005142D01*
X144680000Y-94033714D01*
X144651428Y-94090857D01*
X144651428Y-94205142D01*
X144680000Y-94262285D01*
X145022857Y-94005142D02*
X145051428Y-94062285D01*
X145051428Y-94205142D01*
X145022857Y-94262285D01*
X144965714Y-94290857D01*
X144908571Y-94290857D01*
X144851428Y-94262285D01*
X144822857Y-94205142D01*
X144822857Y-94062285D01*
X144794285Y-94005142D01*
X145051428Y-93719428D02*
X144651428Y-93719428D01*
X144765714Y-93719428D02*
X144708571Y-93690857D01*
X144680000Y-93662285D01*
X144651428Y-93605142D01*
X144651428Y-93548000D01*
X145022857Y-93376571D02*
X145051428Y-93319428D01*
X145051428Y-93205142D01*
X145022857Y-93148000D01*
X144965714Y-93119428D01*
X144937142Y-93119428D01*
X144880000Y-93148000D01*
X144851428Y-93205142D01*
X144851428Y-93290857D01*
X144822857Y-93348000D01*
X144765714Y-93376571D01*
X144737142Y-93376571D01*
X144680000Y-93348000D01*
X144651428Y-93290857D01*
X144651428Y-93205142D01*
X144680000Y-93148000D01*
X144994285Y-92862285D02*
X145022857Y-92833714D01*
X145051428Y-92862285D01*
X145022857Y-92890857D01*
X144994285Y-92862285D01*
X145051428Y-92862285D01*
X145022857Y-92319428D02*
X145051428Y-92376571D01*
X145051428Y-92490857D01*
X145022857Y-92548000D01*
X144994285Y-92576571D01*
X144937142Y-92605142D01*
X144765714Y-92605142D01*
X144708571Y-92576571D01*
X144680000Y-92548000D01*
X144651428Y-92490857D01*
X144651428Y-92376571D01*
X144680000Y-92319428D01*
X145051428Y-91976571D02*
X145022857Y-92033714D01*
X144994285Y-92062285D01*
X144937142Y-92090857D01*
X144765714Y-92090857D01*
X144708571Y-92062285D01*
X144680000Y-92033714D01*
X144651428Y-91976571D01*
X144651428Y-91890857D01*
X144680000Y-91833714D01*
X144708571Y-91805142D01*
X144765714Y-91776571D01*
X144937142Y-91776571D01*
X144994285Y-91805142D01*
X145022857Y-91833714D01*
X145051428Y-91890857D01*
X145051428Y-91976571D01*
X145051428Y-91519428D02*
X144651428Y-91519428D01*
X144708571Y-91519428D02*
X144680000Y-91490857D01*
X144651428Y-91433714D01*
X144651428Y-91348000D01*
X144680000Y-91290857D01*
X144737142Y-91262285D01*
X145051428Y-91262285D01*
X144737142Y-91262285D02*
X144680000Y-91233714D01*
X144651428Y-91176571D01*
X144651428Y-91090857D01*
X144680000Y-91033714D01*
X144737142Y-91005142D01*
X145051428Y-91005142D01*
X144422857Y-90290857D02*
X145194285Y-90805142D01*
X144651428Y-90090857D02*
X145251428Y-90090857D01*
X144680000Y-90090857D02*
X144651428Y-90033714D01*
X144651428Y-89919428D01*
X144680000Y-89862285D01*
X144708571Y-89833714D01*
X144765714Y-89805142D01*
X144937142Y-89805142D01*
X144994285Y-89833714D01*
X145022857Y-89862285D01*
X145051428Y-89919428D01*
X145051428Y-90033714D01*
X145022857Y-90090857D01*
X145022857Y-89290857D02*
X145051428Y-89348000D01*
X145051428Y-89462285D01*
X145022857Y-89519428D01*
X144994285Y-89548000D01*
X144937142Y-89576571D01*
X144765714Y-89576571D01*
X144708571Y-89548000D01*
X144680000Y-89519428D01*
X144651428Y-89462285D01*
X144651428Y-89348000D01*
X144680000Y-89290857D01*
X145051428Y-89033714D02*
X144451428Y-89033714D01*
X144680000Y-89033714D02*
X144651428Y-88976571D01*
X144651428Y-88862285D01*
X144680000Y-88805142D01*
X144708571Y-88776571D01*
X144765714Y-88748000D01*
X144937142Y-88748000D01*
X144994285Y-88776571D01*
X145022857Y-88805142D01*
X145051428Y-88862285D01*
X145051428Y-88976571D01*
X145022857Y-89033714D01*
X144994285Y-88405142D02*
X145022857Y-88376571D01*
X145051428Y-88405142D01*
X145022857Y-88433714D01*
X144994285Y-88405142D01*
X145051428Y-88405142D01*
X144480000Y-88519428D02*
X144451428Y-88462285D01*
X144451428Y-88319428D01*
X144480000Y-88262285D01*
X144537142Y-88233714D01*
X144594285Y-88233714D01*
X144651428Y-88262285D01*
X144680000Y-88290857D01*
X144708571Y-88348000D01*
X144737142Y-88376571D01*
X144794285Y-88405142D01*
X144822857Y-88405142D01*
X145022857Y-88005142D02*
X145051428Y-87948000D01*
X145051428Y-87833714D01*
X145022857Y-87776571D01*
X144965714Y-87748000D01*
X144937142Y-87748000D01*
X144880000Y-87776571D01*
X144851428Y-87833714D01*
X144851428Y-87919428D01*
X144822857Y-87976571D01*
X144765714Y-88005142D01*
X144737142Y-88005142D01*
X144680000Y-87976571D01*
X144651428Y-87919428D01*
X144651428Y-87833714D01*
X144680000Y-87776571D01*
X145051428Y-87490857D02*
X144451428Y-87490857D01*
X144822857Y-87433714D02*
X145051428Y-87262285D01*
X144651428Y-87262285D02*
X144880000Y-87490857D01*
X144651428Y-86748000D02*
X145051428Y-86748000D01*
X144651428Y-87005142D02*
X144965714Y-87005142D01*
X145022857Y-86976571D01*
X145051428Y-86919428D01*
X145051428Y-86833714D01*
X145022857Y-86776571D01*
X144994285Y-86748000D01*
X144737142Y-86462285D02*
X144737142Y-86005142D01*
X144908571Y-86005142D02*
X144908571Y-86462285D01*
X144651428Y-85805142D02*
X144651428Y-85576571D01*
X145051428Y-85719428D02*
X144537142Y-85719428D01*
X144480000Y-85690857D01*
X144451428Y-85633714D01*
X144451428Y-85576571D01*
X144508571Y-85405142D02*
X144480000Y-85376571D01*
X144451428Y-85319428D01*
X144451428Y-85176571D01*
X144480000Y-85119428D01*
X144508571Y-85090857D01*
X144565714Y-85062285D01*
X144622857Y-85062285D01*
X144708571Y-85090857D01*
X145051428Y-85433714D01*
X145051428Y-85062285D01*
X144451428Y-84862285D02*
X144451428Y-84462285D01*
X145051428Y-84719428D01*
X144651428Y-84290857D02*
X144651428Y-83976571D01*
X145051428Y-84290857D01*
X145051428Y-83976571D01*
X144508571Y-83776571D02*
X144480000Y-83748000D01*
X144451428Y-83690857D01*
X144451428Y-83548000D01*
X144480000Y-83490857D01*
X144508571Y-83462285D01*
X144565714Y-83433714D01*
X144622857Y-83433714D01*
X144708571Y-83462285D01*
X145051428Y-83805142D01*
X145051428Y-83433714D01*
X144708571Y-83090857D02*
X144680000Y-83148000D01*
X144651428Y-83176571D01*
X144594285Y-83205142D01*
X144565714Y-83205142D01*
X144508571Y-83176571D01*
X144480000Y-83148000D01*
X144451428Y-83090857D01*
X144451428Y-82976571D01*
X144480000Y-82919428D01*
X144508571Y-82890857D01*
X144565714Y-82862285D01*
X144594285Y-82862285D01*
X144651428Y-82890857D01*
X144680000Y-82919428D01*
X144708571Y-82976571D01*
X144708571Y-83090857D01*
X144737142Y-83148000D01*
X144765714Y-83176571D01*
X144822857Y-83205142D01*
X144937142Y-83205142D01*
X144994285Y-83176571D01*
X145022857Y-83148000D01*
X145051428Y-83090857D01*
X145051428Y-82976571D01*
X145022857Y-82919428D01*
X144994285Y-82890857D01*
X144937142Y-82862285D01*
X144822857Y-82862285D01*
X144765714Y-82890857D01*
X144737142Y-82919428D01*
X144708571Y-82976571D01*
X144651428Y-82605142D02*
X145251428Y-82605142D01*
X144680000Y-82605142D02*
X144651428Y-82548000D01*
X144651428Y-82433714D01*
X144680000Y-82376571D01*
X144708571Y-82348000D01*
X144765714Y-82319428D01*
X144937142Y-82319428D01*
X144994285Y-82348000D01*
X145022857Y-82376571D01*
X145051428Y-82433714D01*
X145051428Y-82548000D01*
X145022857Y-82605142D01*
D10*
G36*
X153664228Y-110687703D02*
G01*
X153819100Y-110751853D01*
X153958481Y-110844985D01*
X154077015Y-110963519D01*
X154170147Y-111102900D01*
X154234297Y-111257772D01*
X154267000Y-111422184D01*
X154267000Y-111589816D01*
X154234297Y-111754228D01*
X154170147Y-111909100D01*
X154077015Y-112048481D01*
X153958481Y-112167015D01*
X153819100Y-112260147D01*
X153664228Y-112324297D01*
X153499816Y-112357000D01*
X153332184Y-112357000D01*
X153167772Y-112324297D01*
X153012900Y-112260147D01*
X152873519Y-112167015D01*
X152754985Y-112048481D01*
X152661853Y-111909100D01*
X152597703Y-111754228D01*
X152565000Y-111589816D01*
X152565000Y-111422184D01*
X152597703Y-111257772D01*
X152661853Y-111102900D01*
X152754985Y-110963519D01*
X152873519Y-110844985D01*
X153012900Y-110751853D01*
X153167772Y-110687703D01*
X153332184Y-110655000D01*
X153499816Y-110655000D01*
X153664228Y-110687703D01*
G37*
G36*
X138424228Y-110687703D02*
G01*
X138579100Y-110751853D01*
X138718481Y-110844985D01*
X138837015Y-110963519D01*
X138930147Y-111102900D01*
X138994297Y-111257772D01*
X139027000Y-111422184D01*
X139027000Y-111589816D01*
X138994297Y-111754228D01*
X138930147Y-111909100D01*
X138837015Y-112048481D01*
X138718481Y-112167015D01*
X138579100Y-112260147D01*
X138424228Y-112324297D01*
X138259816Y-112357000D01*
X138092184Y-112357000D01*
X137927772Y-112324297D01*
X137772900Y-112260147D01*
X137633519Y-112167015D01*
X137514985Y-112048481D01*
X137421853Y-111909100D01*
X137357703Y-111754228D01*
X137325000Y-111589816D01*
X137325000Y-111422184D01*
X137357703Y-111257772D01*
X137421853Y-111102900D01*
X137514985Y-110963519D01*
X137633519Y-110844985D01*
X137772900Y-110751853D01*
X137927772Y-110687703D01*
X138092184Y-110655000D01*
X138259816Y-110655000D01*
X138424228Y-110687703D01*
G37*
G36*
X151431000Y-112007000D02*
G01*
X150829000Y-112007000D01*
X150829000Y-111005000D01*
X151431000Y-111005000D01*
X151431000Y-112007000D01*
G37*
G36*
X140787000Y-112007000D02*
G01*
X140185000Y-112007000D01*
X140185000Y-111005000D01*
X140787000Y-111005000D01*
X140787000Y-112007000D01*
G37*
G36*
X149931000Y-112007000D02*
G01*
X149329000Y-112007000D01*
X149329000Y-111005000D01*
X149931000Y-111005000D01*
X149931000Y-112007000D01*
G37*
G36*
X142287000Y-112007000D02*
G01*
X141685000Y-112007000D01*
X141685000Y-111005000D01*
X142287000Y-111005000D01*
X142287000Y-112007000D01*
G37*
G36*
X153664228Y-108147703D02*
G01*
X153819100Y-108211853D01*
X153958481Y-108304985D01*
X154077015Y-108423519D01*
X154170147Y-108562900D01*
X154234297Y-108717772D01*
X154267000Y-108882184D01*
X154267000Y-109049816D01*
X154234297Y-109214228D01*
X154170147Y-109369100D01*
X154077015Y-109508481D01*
X153958481Y-109627015D01*
X153819100Y-109720147D01*
X153664228Y-109784297D01*
X153499816Y-109817000D01*
X153332184Y-109817000D01*
X153167772Y-109784297D01*
X153012900Y-109720147D01*
X152873519Y-109627015D01*
X152754985Y-109508481D01*
X152661853Y-109369100D01*
X152597703Y-109214228D01*
X152565000Y-109049816D01*
X152565000Y-108882184D01*
X152597703Y-108717772D01*
X152661853Y-108562900D01*
X152754985Y-108423519D01*
X152873519Y-108304985D01*
X153012900Y-108211853D01*
X153167772Y-108147703D01*
X153332184Y-108115000D01*
X153499816Y-108115000D01*
X153664228Y-108147703D01*
G37*
G36*
X138424228Y-108147703D02*
G01*
X138579100Y-108211853D01*
X138718481Y-108304985D01*
X138837015Y-108423519D01*
X138930147Y-108562900D01*
X138994297Y-108717772D01*
X139027000Y-108882184D01*
X139027000Y-109049816D01*
X138994297Y-109214228D01*
X138930147Y-109369100D01*
X138837015Y-109508481D01*
X138718481Y-109627015D01*
X138579100Y-109720147D01*
X138424228Y-109784297D01*
X138259816Y-109817000D01*
X138092184Y-109817000D01*
X137927772Y-109784297D01*
X137772900Y-109720147D01*
X137633519Y-109627015D01*
X137514985Y-109508481D01*
X137421853Y-109369100D01*
X137357703Y-109214228D01*
X137325000Y-109049816D01*
X137325000Y-108882184D01*
X137357703Y-108717772D01*
X137421853Y-108562900D01*
X137514985Y-108423519D01*
X137633519Y-108304985D01*
X137772900Y-108211853D01*
X137927772Y-108147703D01*
X138092184Y-108115000D01*
X138259816Y-108115000D01*
X138424228Y-108147703D01*
G37*
G36*
X140775000Y-109467000D02*
G01*
X140173000Y-109467000D01*
X140173000Y-108465000D01*
X140775000Y-108465000D01*
X140775000Y-109467000D01*
G37*
G36*
X149919000Y-109467000D02*
G01*
X149317000Y-109467000D01*
X149317000Y-108465000D01*
X149919000Y-108465000D01*
X149919000Y-109467000D01*
G37*
G36*
X151419000Y-109467000D02*
G01*
X150817000Y-109467000D01*
X150817000Y-108465000D01*
X151419000Y-108465000D01*
X151419000Y-109467000D01*
G37*
G36*
X142275000Y-109467000D02*
G01*
X141673000Y-109467000D01*
X141673000Y-108465000D01*
X142275000Y-108465000D01*
X142275000Y-109467000D01*
G37*
G36*
X138424228Y-105607703D02*
G01*
X138579100Y-105671853D01*
X138718481Y-105764985D01*
X138837015Y-105883519D01*
X138930147Y-106022900D01*
X138994297Y-106177772D01*
X139027000Y-106342184D01*
X139027000Y-106509816D01*
X138994297Y-106674228D01*
X138930147Y-106829100D01*
X138837015Y-106968481D01*
X138718481Y-107087015D01*
X138579100Y-107180147D01*
X138424228Y-107244297D01*
X138259816Y-107277000D01*
X138092184Y-107277000D01*
X137927772Y-107244297D01*
X137772900Y-107180147D01*
X137633519Y-107087015D01*
X137514985Y-106968481D01*
X137421853Y-106829100D01*
X137357703Y-106674228D01*
X137325000Y-106509816D01*
X137325000Y-106342184D01*
X137357703Y-106177772D01*
X137421853Y-106022900D01*
X137514985Y-105883519D01*
X137633519Y-105764985D01*
X137772900Y-105671853D01*
X137927772Y-105607703D01*
X138092184Y-105575000D01*
X138259816Y-105575000D01*
X138424228Y-105607703D01*
G37*
G36*
X153664228Y-105607703D02*
G01*
X153819100Y-105671853D01*
X153958481Y-105764985D01*
X154077015Y-105883519D01*
X154170147Y-106022900D01*
X154234297Y-106177772D01*
X154267000Y-106342184D01*
X154267000Y-106509816D01*
X154234297Y-106674228D01*
X154170147Y-106829100D01*
X154077015Y-106968481D01*
X153958481Y-107087015D01*
X153819100Y-107180147D01*
X153664228Y-107244297D01*
X153499816Y-107277000D01*
X153332184Y-107277000D01*
X153167772Y-107244297D01*
X153012900Y-107180147D01*
X152873519Y-107087015D01*
X152754985Y-106968481D01*
X152661853Y-106829100D01*
X152597703Y-106674228D01*
X152565000Y-106509816D01*
X152565000Y-106342184D01*
X152597703Y-106177772D01*
X152661853Y-106022900D01*
X152754985Y-105883519D01*
X152873519Y-105764985D01*
X153012900Y-105671853D01*
X153167772Y-105607703D01*
X153332184Y-105575000D01*
X153499816Y-105575000D01*
X153664228Y-105607703D01*
G37*
G36*
X151431000Y-106927000D02*
G01*
X150829000Y-106927000D01*
X150829000Y-105925000D01*
X151431000Y-105925000D01*
X151431000Y-106927000D01*
G37*
G36*
X149931000Y-106927000D02*
G01*
X149329000Y-106927000D01*
X149329000Y-105925000D01*
X149931000Y-105925000D01*
X149931000Y-106927000D01*
G37*
G36*
X142275000Y-106927000D02*
G01*
X141673000Y-106927000D01*
X141673000Y-105925000D01*
X142275000Y-105925000D01*
X142275000Y-106927000D01*
G37*
G36*
X140775000Y-106927000D02*
G01*
X140173000Y-106927000D01*
X140173000Y-105925000D01*
X140775000Y-105925000D01*
X140775000Y-106927000D01*
G37*
G36*
X138424228Y-103067703D02*
G01*
X138579100Y-103131853D01*
X138718481Y-103224985D01*
X138837015Y-103343519D01*
X138930147Y-103482900D01*
X138994297Y-103637772D01*
X139027000Y-103802184D01*
X139027000Y-103969816D01*
X138994297Y-104134228D01*
X138930147Y-104289100D01*
X138837015Y-104428481D01*
X138718481Y-104547015D01*
X138579100Y-104640147D01*
X138424228Y-104704297D01*
X138259816Y-104737000D01*
X138092184Y-104737000D01*
X137927772Y-104704297D01*
X137772900Y-104640147D01*
X137633519Y-104547015D01*
X137514985Y-104428481D01*
X137421853Y-104289100D01*
X137357703Y-104134228D01*
X137325000Y-103969816D01*
X137325000Y-103802184D01*
X137357703Y-103637772D01*
X137421853Y-103482900D01*
X137514985Y-103343519D01*
X137633519Y-103224985D01*
X137772900Y-103131853D01*
X137927772Y-103067703D01*
X138092184Y-103035000D01*
X138259816Y-103035000D01*
X138424228Y-103067703D01*
G37*
G36*
X153664228Y-103067703D02*
G01*
X153819100Y-103131853D01*
X153958481Y-103224985D01*
X154077015Y-103343519D01*
X154170147Y-103482900D01*
X154234297Y-103637772D01*
X154267000Y-103802184D01*
X154267000Y-103969816D01*
X154234297Y-104134228D01*
X154170147Y-104289100D01*
X154077015Y-104428481D01*
X153958481Y-104547015D01*
X153819100Y-104640147D01*
X153664228Y-104704297D01*
X153499816Y-104737000D01*
X153332184Y-104737000D01*
X153167772Y-104704297D01*
X153012900Y-104640147D01*
X152873519Y-104547015D01*
X152754985Y-104428481D01*
X152661853Y-104289100D01*
X152597703Y-104134228D01*
X152565000Y-103969816D01*
X152565000Y-103802184D01*
X152597703Y-103637772D01*
X152661853Y-103482900D01*
X152754985Y-103343519D01*
X152873519Y-103224985D01*
X153012900Y-103131853D01*
X153167772Y-103067703D01*
X153332184Y-103035000D01*
X153499816Y-103035000D01*
X153664228Y-103067703D01*
G37*
G36*
X142275000Y-104387000D02*
G01*
X141673000Y-104387000D01*
X141673000Y-103385000D01*
X142275000Y-103385000D01*
X142275000Y-104387000D01*
G37*
G36*
X151419000Y-104387000D02*
G01*
X150817000Y-104387000D01*
X150817000Y-103385000D01*
X151419000Y-103385000D01*
X151419000Y-104387000D01*
G37*
G36*
X140775000Y-104387000D02*
G01*
X140173000Y-104387000D01*
X140173000Y-103385000D01*
X140775000Y-103385000D01*
X140775000Y-104387000D01*
G37*
G36*
X149919000Y-104387000D02*
G01*
X149317000Y-104387000D01*
X149317000Y-103385000D01*
X149919000Y-103385000D01*
X149919000Y-104387000D01*
G37*
G36*
X153664228Y-100527703D02*
G01*
X153819100Y-100591853D01*
X153958481Y-100684985D01*
X154077015Y-100803519D01*
X154170147Y-100942900D01*
X154234297Y-101097772D01*
X154267000Y-101262184D01*
X154267000Y-101429816D01*
X154234297Y-101594228D01*
X154170147Y-101749100D01*
X154077015Y-101888481D01*
X153958481Y-102007015D01*
X153819100Y-102100147D01*
X153664228Y-102164297D01*
X153499816Y-102197000D01*
X153332184Y-102197000D01*
X153167772Y-102164297D01*
X153012900Y-102100147D01*
X152873519Y-102007015D01*
X152754985Y-101888481D01*
X152661853Y-101749100D01*
X152597703Y-101594228D01*
X152565000Y-101429816D01*
X152565000Y-101262184D01*
X152597703Y-101097772D01*
X152661853Y-100942900D01*
X152754985Y-100803519D01*
X152873519Y-100684985D01*
X153012900Y-100591853D01*
X153167772Y-100527703D01*
X153332184Y-100495000D01*
X153499816Y-100495000D01*
X153664228Y-100527703D01*
G37*
G36*
X138424228Y-100527703D02*
G01*
X138579100Y-100591853D01*
X138718481Y-100684985D01*
X138837015Y-100803519D01*
X138930147Y-100942900D01*
X138994297Y-101097772D01*
X139027000Y-101262184D01*
X139027000Y-101429816D01*
X138994297Y-101594228D01*
X138930147Y-101749100D01*
X138837015Y-101888481D01*
X138718481Y-102007015D01*
X138579100Y-102100147D01*
X138424228Y-102164297D01*
X138259816Y-102197000D01*
X138092184Y-102197000D01*
X137927772Y-102164297D01*
X137772900Y-102100147D01*
X137633519Y-102007015D01*
X137514985Y-101888481D01*
X137421853Y-101749100D01*
X137357703Y-101594228D01*
X137325000Y-101429816D01*
X137325000Y-101262184D01*
X137357703Y-101097772D01*
X137421853Y-100942900D01*
X137514985Y-100803519D01*
X137633519Y-100684985D01*
X137772900Y-100591853D01*
X137927772Y-100527703D01*
X138092184Y-100495000D01*
X138259816Y-100495000D01*
X138424228Y-100527703D01*
G37*
G36*
X151419000Y-101847000D02*
G01*
X150817000Y-101847000D01*
X150817000Y-100845000D01*
X151419000Y-100845000D01*
X151419000Y-101847000D01*
G37*
G36*
X149919000Y-101847000D02*
G01*
X149317000Y-101847000D01*
X149317000Y-100845000D01*
X149919000Y-100845000D01*
X149919000Y-101847000D01*
G37*
G36*
X142275000Y-101847000D02*
G01*
X141673000Y-101847000D01*
X141673000Y-100845000D01*
X142275000Y-100845000D01*
X142275000Y-101847000D01*
G37*
G36*
X140775000Y-101847000D02*
G01*
X140173000Y-101847000D01*
X140173000Y-100845000D01*
X140775000Y-100845000D01*
X140775000Y-101847000D01*
G37*
G36*
X138424228Y-97987703D02*
G01*
X138579100Y-98051853D01*
X138718481Y-98144985D01*
X138837015Y-98263519D01*
X138930147Y-98402900D01*
X138994297Y-98557772D01*
X139027000Y-98722184D01*
X139027000Y-98889816D01*
X138994297Y-99054228D01*
X138930147Y-99209100D01*
X138837015Y-99348481D01*
X138718481Y-99467015D01*
X138579100Y-99560147D01*
X138424228Y-99624297D01*
X138259816Y-99657000D01*
X138092184Y-99657000D01*
X137927772Y-99624297D01*
X137772900Y-99560147D01*
X137633519Y-99467015D01*
X137514985Y-99348481D01*
X137421853Y-99209100D01*
X137357703Y-99054228D01*
X137325000Y-98889816D01*
X137325000Y-98722184D01*
X137357703Y-98557772D01*
X137421853Y-98402900D01*
X137514985Y-98263519D01*
X137633519Y-98144985D01*
X137772900Y-98051853D01*
X137927772Y-97987703D01*
X138092184Y-97955000D01*
X138259816Y-97955000D01*
X138424228Y-97987703D01*
G37*
G36*
X153664228Y-97987703D02*
G01*
X153819100Y-98051853D01*
X153958481Y-98144985D01*
X154077015Y-98263519D01*
X154170147Y-98402900D01*
X154234297Y-98557772D01*
X154267000Y-98722184D01*
X154267000Y-98889816D01*
X154234297Y-99054228D01*
X154170147Y-99209100D01*
X154077015Y-99348481D01*
X153958481Y-99467015D01*
X153819100Y-99560147D01*
X153664228Y-99624297D01*
X153499816Y-99657000D01*
X153332184Y-99657000D01*
X153167772Y-99624297D01*
X153012900Y-99560147D01*
X152873519Y-99467015D01*
X152754985Y-99348481D01*
X152661853Y-99209100D01*
X152597703Y-99054228D01*
X152565000Y-98889816D01*
X152565000Y-98722184D01*
X152597703Y-98557772D01*
X152661853Y-98402900D01*
X152754985Y-98263519D01*
X152873519Y-98144985D01*
X153012900Y-98051853D01*
X153167772Y-97987703D01*
X153332184Y-97955000D01*
X153499816Y-97955000D01*
X153664228Y-97987703D01*
G37*
G36*
X140775000Y-99307000D02*
G01*
X140173000Y-99307000D01*
X140173000Y-98305000D01*
X140775000Y-98305000D01*
X140775000Y-99307000D01*
G37*
G36*
X149919000Y-99307000D02*
G01*
X149317000Y-99307000D01*
X149317000Y-98305000D01*
X149919000Y-98305000D01*
X149919000Y-99307000D01*
G37*
G36*
X151419000Y-99307000D02*
G01*
X150817000Y-99307000D01*
X150817000Y-98305000D01*
X151419000Y-98305000D01*
X151419000Y-99307000D01*
G37*
G36*
X142275000Y-99307000D02*
G01*
X141673000Y-99307000D01*
X141673000Y-98305000D01*
X142275000Y-98305000D01*
X142275000Y-99307000D01*
G37*
G36*
X153664228Y-95447703D02*
G01*
X153819100Y-95511853D01*
X153958481Y-95604985D01*
X154077015Y-95723519D01*
X154170147Y-95862900D01*
X154234297Y-96017772D01*
X154267000Y-96182184D01*
X154267000Y-96349816D01*
X154234297Y-96514228D01*
X154170147Y-96669100D01*
X154077015Y-96808481D01*
X153958481Y-96927015D01*
X153819100Y-97020147D01*
X153664228Y-97084297D01*
X153499816Y-97117000D01*
X153332184Y-97117000D01*
X153167772Y-97084297D01*
X153012900Y-97020147D01*
X152873519Y-96927015D01*
X152754985Y-96808481D01*
X152661853Y-96669100D01*
X152597703Y-96514228D01*
X152565000Y-96349816D01*
X152565000Y-96182184D01*
X152597703Y-96017772D01*
X152661853Y-95862900D01*
X152754985Y-95723519D01*
X152873519Y-95604985D01*
X153012900Y-95511853D01*
X153167772Y-95447703D01*
X153332184Y-95415000D01*
X153499816Y-95415000D01*
X153664228Y-95447703D01*
G37*
G36*
X138424228Y-95447703D02*
G01*
X138579100Y-95511853D01*
X138718481Y-95604985D01*
X138837015Y-95723519D01*
X138930147Y-95862900D01*
X138994297Y-96017772D01*
X139027000Y-96182184D01*
X139027000Y-96349816D01*
X138994297Y-96514228D01*
X138930147Y-96669100D01*
X138837015Y-96808481D01*
X138718481Y-96927015D01*
X138579100Y-97020147D01*
X138424228Y-97084297D01*
X138259816Y-97117000D01*
X138092184Y-97117000D01*
X137927772Y-97084297D01*
X137772900Y-97020147D01*
X137633519Y-96927015D01*
X137514985Y-96808481D01*
X137421853Y-96669100D01*
X137357703Y-96514228D01*
X137325000Y-96349816D01*
X137325000Y-96182184D01*
X137357703Y-96017772D01*
X137421853Y-95862900D01*
X137514985Y-95723519D01*
X137633519Y-95604985D01*
X137772900Y-95511853D01*
X137927772Y-95447703D01*
X138092184Y-95415000D01*
X138259816Y-95415000D01*
X138424228Y-95447703D01*
G37*
G36*
X149919000Y-96767000D02*
G01*
X149317000Y-96767000D01*
X149317000Y-95765000D01*
X149919000Y-95765000D01*
X149919000Y-96767000D01*
G37*
G36*
X151419000Y-96767000D02*
G01*
X150817000Y-96767000D01*
X150817000Y-95765000D01*
X151419000Y-95765000D01*
X151419000Y-96767000D01*
G37*
G36*
X142275000Y-96767000D02*
G01*
X141673000Y-96767000D01*
X141673000Y-95765000D01*
X142275000Y-95765000D01*
X142275000Y-96767000D01*
G37*
G36*
X140775000Y-96767000D02*
G01*
X140173000Y-96767000D01*
X140173000Y-95765000D01*
X140775000Y-95765000D01*
X140775000Y-96767000D01*
G37*
G36*
X138424228Y-92907703D02*
G01*
X138579100Y-92971853D01*
X138718481Y-93064985D01*
X138837015Y-93183519D01*
X138930147Y-93322900D01*
X138994297Y-93477772D01*
X139027000Y-93642184D01*
X139027000Y-93809816D01*
X138994297Y-93974228D01*
X138930147Y-94129100D01*
X138837015Y-94268481D01*
X138718481Y-94387015D01*
X138579100Y-94480147D01*
X138424228Y-94544297D01*
X138259816Y-94577000D01*
X138092184Y-94577000D01*
X137927772Y-94544297D01*
X137772900Y-94480147D01*
X137633519Y-94387015D01*
X137514985Y-94268481D01*
X137421853Y-94129100D01*
X137357703Y-93974228D01*
X137325000Y-93809816D01*
X137325000Y-93642184D01*
X137357703Y-93477772D01*
X137421853Y-93322900D01*
X137514985Y-93183519D01*
X137633519Y-93064985D01*
X137772900Y-92971853D01*
X137927772Y-92907703D01*
X138092184Y-92875000D01*
X138259816Y-92875000D01*
X138424228Y-92907703D01*
G37*
G36*
X153664228Y-92907703D02*
G01*
X153819100Y-92971853D01*
X153958481Y-93064985D01*
X154077015Y-93183519D01*
X154170147Y-93322900D01*
X154234297Y-93477772D01*
X154267000Y-93642184D01*
X154267000Y-93809816D01*
X154234297Y-93974228D01*
X154170147Y-94129100D01*
X154077015Y-94268481D01*
X153958481Y-94387015D01*
X153819100Y-94480147D01*
X153664228Y-94544297D01*
X153499816Y-94577000D01*
X153332184Y-94577000D01*
X153167772Y-94544297D01*
X153012900Y-94480147D01*
X152873519Y-94387015D01*
X152754985Y-94268481D01*
X152661853Y-94129100D01*
X152597703Y-93974228D01*
X152565000Y-93809816D01*
X152565000Y-93642184D01*
X152597703Y-93477772D01*
X152661853Y-93322900D01*
X152754985Y-93183519D01*
X152873519Y-93064985D01*
X153012900Y-92971853D01*
X153167772Y-92907703D01*
X153332184Y-92875000D01*
X153499816Y-92875000D01*
X153664228Y-92907703D01*
G37*
G36*
X149919000Y-94227000D02*
G01*
X149317000Y-94227000D01*
X149317000Y-93225000D01*
X149919000Y-93225000D01*
X149919000Y-94227000D01*
G37*
G36*
X151419000Y-94227000D02*
G01*
X150817000Y-94227000D01*
X150817000Y-93225000D01*
X151419000Y-93225000D01*
X151419000Y-94227000D01*
G37*
G36*
X142275000Y-94227000D02*
G01*
X141673000Y-94227000D01*
X141673000Y-93225000D01*
X142275000Y-93225000D01*
X142275000Y-94227000D01*
G37*
G36*
X140775000Y-94227000D02*
G01*
X140173000Y-94227000D01*
X140173000Y-93225000D01*
X140775000Y-93225000D01*
X140775000Y-94227000D01*
G37*
G36*
X153664228Y-90367703D02*
G01*
X153819100Y-90431853D01*
X153958481Y-90524985D01*
X154077015Y-90643519D01*
X154170147Y-90782900D01*
X154234297Y-90937772D01*
X154267000Y-91102184D01*
X154267000Y-91269816D01*
X154234297Y-91434228D01*
X154170147Y-91589100D01*
X154077015Y-91728481D01*
X153958481Y-91847015D01*
X153819100Y-91940147D01*
X153664228Y-92004297D01*
X153499816Y-92037000D01*
X153332184Y-92037000D01*
X153167772Y-92004297D01*
X153012900Y-91940147D01*
X152873519Y-91847015D01*
X152754985Y-91728481D01*
X152661853Y-91589100D01*
X152597703Y-91434228D01*
X152565000Y-91269816D01*
X152565000Y-91102184D01*
X152597703Y-90937772D01*
X152661853Y-90782900D01*
X152754985Y-90643519D01*
X152873519Y-90524985D01*
X153012900Y-90431853D01*
X153167772Y-90367703D01*
X153332184Y-90335000D01*
X153499816Y-90335000D01*
X153664228Y-90367703D01*
G37*
G36*
X138424228Y-90367703D02*
G01*
X138579100Y-90431853D01*
X138718481Y-90524985D01*
X138837015Y-90643519D01*
X138930147Y-90782900D01*
X138994297Y-90937772D01*
X139027000Y-91102184D01*
X139027000Y-91269816D01*
X138994297Y-91434228D01*
X138930147Y-91589100D01*
X138837015Y-91728481D01*
X138718481Y-91847015D01*
X138579100Y-91940147D01*
X138424228Y-92004297D01*
X138259816Y-92037000D01*
X138092184Y-92037000D01*
X137927772Y-92004297D01*
X137772900Y-91940147D01*
X137633519Y-91847015D01*
X137514985Y-91728481D01*
X137421853Y-91589100D01*
X137357703Y-91434228D01*
X137325000Y-91269816D01*
X137325000Y-91102184D01*
X137357703Y-90937772D01*
X137421853Y-90782900D01*
X137514985Y-90643519D01*
X137633519Y-90524985D01*
X137772900Y-90431853D01*
X137927772Y-90367703D01*
X138092184Y-90335000D01*
X138259816Y-90335000D01*
X138424228Y-90367703D01*
G37*
G36*
X151419000Y-91687000D02*
G01*
X150817000Y-91687000D01*
X150817000Y-90685000D01*
X151419000Y-90685000D01*
X151419000Y-91687000D01*
G37*
G36*
X149919000Y-91687000D02*
G01*
X149317000Y-91687000D01*
X149317000Y-90685000D01*
X149919000Y-90685000D01*
X149919000Y-91687000D01*
G37*
G36*
X140775000Y-91687000D02*
G01*
X140173000Y-91687000D01*
X140173000Y-90685000D01*
X140775000Y-90685000D01*
X140775000Y-91687000D01*
G37*
G36*
X142275000Y-91687000D02*
G01*
X141673000Y-91687000D01*
X141673000Y-90685000D01*
X142275000Y-90685000D01*
X142275000Y-91687000D01*
G37*
G36*
X138424228Y-87827703D02*
G01*
X138579100Y-87891853D01*
X138718481Y-87984985D01*
X138837015Y-88103519D01*
X138930147Y-88242900D01*
X138994297Y-88397772D01*
X139027000Y-88562184D01*
X139027000Y-88729816D01*
X138994297Y-88894228D01*
X138930147Y-89049100D01*
X138837015Y-89188481D01*
X138718481Y-89307015D01*
X138579100Y-89400147D01*
X138424228Y-89464297D01*
X138259816Y-89497000D01*
X138092184Y-89497000D01*
X137927772Y-89464297D01*
X137772900Y-89400147D01*
X137633519Y-89307015D01*
X137514985Y-89188481D01*
X137421853Y-89049100D01*
X137357703Y-88894228D01*
X137325000Y-88729816D01*
X137325000Y-88562184D01*
X137357703Y-88397772D01*
X137421853Y-88242900D01*
X137514985Y-88103519D01*
X137633519Y-87984985D01*
X137772900Y-87891853D01*
X137927772Y-87827703D01*
X138092184Y-87795000D01*
X138259816Y-87795000D01*
X138424228Y-87827703D01*
G37*
G36*
X153664228Y-87827703D02*
G01*
X153819100Y-87891853D01*
X153958481Y-87984985D01*
X154077015Y-88103519D01*
X154170147Y-88242900D01*
X154234297Y-88397772D01*
X154267000Y-88562184D01*
X154267000Y-88729816D01*
X154234297Y-88894228D01*
X154170147Y-89049100D01*
X154077015Y-89188481D01*
X153958481Y-89307015D01*
X153819100Y-89400147D01*
X153664228Y-89464297D01*
X153499816Y-89497000D01*
X153332184Y-89497000D01*
X153167772Y-89464297D01*
X153012900Y-89400147D01*
X152873519Y-89307015D01*
X152754985Y-89188481D01*
X152661853Y-89049100D01*
X152597703Y-88894228D01*
X152565000Y-88729816D01*
X152565000Y-88562184D01*
X152597703Y-88397772D01*
X152661853Y-88242900D01*
X152754985Y-88103519D01*
X152873519Y-87984985D01*
X153012900Y-87891853D01*
X153167772Y-87827703D01*
X153332184Y-87795000D01*
X153499816Y-87795000D01*
X153664228Y-87827703D01*
G37*
G36*
X151419000Y-89147000D02*
G01*
X150817000Y-89147000D01*
X150817000Y-88145000D01*
X151419000Y-88145000D01*
X151419000Y-89147000D01*
G37*
G36*
X149919000Y-89147000D02*
G01*
X149317000Y-89147000D01*
X149317000Y-88145000D01*
X149919000Y-88145000D01*
X149919000Y-89147000D01*
G37*
G36*
X140775000Y-89147000D02*
G01*
X140173000Y-89147000D01*
X140173000Y-88145000D01*
X140775000Y-88145000D01*
X140775000Y-89147000D01*
G37*
G36*
X142275000Y-89147000D02*
G01*
X141673000Y-89147000D01*
X141673000Y-88145000D01*
X142275000Y-88145000D01*
X142275000Y-89147000D01*
G37*
G36*
X153664228Y-85287703D02*
G01*
X153819100Y-85351853D01*
X153958481Y-85444985D01*
X154077015Y-85563519D01*
X154170147Y-85702900D01*
X154234297Y-85857772D01*
X154267000Y-86022184D01*
X154267000Y-86189816D01*
X154234297Y-86354228D01*
X154170147Y-86509100D01*
X154077015Y-86648481D01*
X153958481Y-86767015D01*
X153819100Y-86860147D01*
X153664228Y-86924297D01*
X153499816Y-86957000D01*
X153332184Y-86957000D01*
X153167772Y-86924297D01*
X153012900Y-86860147D01*
X152873519Y-86767015D01*
X152754985Y-86648481D01*
X152661853Y-86509100D01*
X152597703Y-86354228D01*
X152565000Y-86189816D01*
X152565000Y-86022184D01*
X152597703Y-85857772D01*
X152661853Y-85702900D01*
X152754985Y-85563519D01*
X152873519Y-85444985D01*
X153012900Y-85351853D01*
X153167772Y-85287703D01*
X153332184Y-85255000D01*
X153499816Y-85255000D01*
X153664228Y-85287703D01*
G37*
G36*
X138424228Y-85287703D02*
G01*
X138579100Y-85351853D01*
X138718481Y-85444985D01*
X138837015Y-85563519D01*
X138930147Y-85702900D01*
X138994297Y-85857772D01*
X139027000Y-86022184D01*
X139027000Y-86189816D01*
X138994297Y-86354228D01*
X138930147Y-86509100D01*
X138837015Y-86648481D01*
X138718481Y-86767015D01*
X138579100Y-86860147D01*
X138424228Y-86924297D01*
X138259816Y-86957000D01*
X138092184Y-86957000D01*
X137927772Y-86924297D01*
X137772900Y-86860147D01*
X137633519Y-86767015D01*
X137514985Y-86648481D01*
X137421853Y-86509100D01*
X137357703Y-86354228D01*
X137325000Y-86189816D01*
X137325000Y-86022184D01*
X137357703Y-85857772D01*
X137421853Y-85702900D01*
X137514985Y-85563519D01*
X137633519Y-85444985D01*
X137772900Y-85351853D01*
X137927772Y-85287703D01*
X138092184Y-85255000D01*
X138259816Y-85255000D01*
X138424228Y-85287703D01*
G37*
G36*
X151419000Y-86607000D02*
G01*
X150817000Y-86607000D01*
X150817000Y-85605000D01*
X151419000Y-85605000D01*
X151419000Y-86607000D01*
G37*
G36*
X140775000Y-86607000D02*
G01*
X140173000Y-86607000D01*
X140173000Y-85605000D01*
X140775000Y-85605000D01*
X140775000Y-86607000D01*
G37*
G36*
X142275000Y-86607000D02*
G01*
X141673000Y-86607000D01*
X141673000Y-85605000D01*
X142275000Y-85605000D01*
X142275000Y-86607000D01*
G37*
G36*
X149919000Y-86607000D02*
G01*
X149317000Y-86607000D01*
X149317000Y-85605000D01*
X149919000Y-85605000D01*
X149919000Y-86607000D01*
G37*
G36*
X153664228Y-82747703D02*
G01*
X153819100Y-82811853D01*
X153958481Y-82904985D01*
X154077015Y-83023519D01*
X154170147Y-83162900D01*
X154234297Y-83317772D01*
X154267000Y-83482184D01*
X154267000Y-83649816D01*
X154234297Y-83814228D01*
X154170147Y-83969100D01*
X154077015Y-84108481D01*
X153958481Y-84227015D01*
X153819100Y-84320147D01*
X153664228Y-84384297D01*
X153499816Y-84417000D01*
X153332184Y-84417000D01*
X153167772Y-84384297D01*
X153012900Y-84320147D01*
X152873519Y-84227015D01*
X152754985Y-84108481D01*
X152661853Y-83969100D01*
X152597703Y-83814228D01*
X152565000Y-83649816D01*
X152565000Y-83482184D01*
X152597703Y-83317772D01*
X152661853Y-83162900D01*
X152754985Y-83023519D01*
X152873519Y-82904985D01*
X153012900Y-82811853D01*
X153167772Y-82747703D01*
X153332184Y-82715000D01*
X153499816Y-82715000D01*
X153664228Y-82747703D01*
G37*
G36*
X138424228Y-82747703D02*
G01*
X138579100Y-82811853D01*
X138718481Y-82904985D01*
X138837015Y-83023519D01*
X138930147Y-83162900D01*
X138994297Y-83317772D01*
X139027000Y-83482184D01*
X139027000Y-83649816D01*
X138994297Y-83814228D01*
X138930147Y-83969100D01*
X138837015Y-84108481D01*
X138718481Y-84227015D01*
X138579100Y-84320147D01*
X138424228Y-84384297D01*
X138259816Y-84417000D01*
X138092184Y-84417000D01*
X137927772Y-84384297D01*
X137772900Y-84320147D01*
X137633519Y-84227015D01*
X137514985Y-84108481D01*
X137421853Y-83969100D01*
X137357703Y-83814228D01*
X137325000Y-83649816D01*
X137325000Y-83482184D01*
X137357703Y-83317772D01*
X137421853Y-83162900D01*
X137514985Y-83023519D01*
X137633519Y-82904985D01*
X137772900Y-82811853D01*
X137927772Y-82747703D01*
X138092184Y-82715000D01*
X138259816Y-82715000D01*
X138424228Y-82747703D01*
G37*
G36*
X149919000Y-84067000D02*
G01*
X149317000Y-84067000D01*
X149317000Y-83065000D01*
X149919000Y-83065000D01*
X149919000Y-84067000D01*
G37*
G36*
X151419000Y-84067000D02*
G01*
X150817000Y-84067000D01*
X150817000Y-83065000D01*
X151419000Y-83065000D01*
X151419000Y-84067000D01*
G37*
G36*
X142275000Y-84067000D02*
G01*
X141673000Y-84067000D01*
X141673000Y-83065000D01*
X142275000Y-83065000D01*
X142275000Y-84067000D01*
G37*
G36*
X140775000Y-84067000D02*
G01*
X140173000Y-84067000D01*
X140173000Y-83065000D01*
X140775000Y-83065000D01*
X140775000Y-84067000D01*
G37*
G36*
X153664228Y-80207703D02*
G01*
X153819100Y-80271853D01*
X153958481Y-80364985D01*
X154077015Y-80483519D01*
X154170147Y-80622900D01*
X154234297Y-80777772D01*
X154267000Y-80942184D01*
X154267000Y-81109816D01*
X154234297Y-81274228D01*
X154170147Y-81429100D01*
X154077015Y-81568481D01*
X153958481Y-81687015D01*
X153819100Y-81780147D01*
X153664228Y-81844297D01*
X153499816Y-81877000D01*
X153332184Y-81877000D01*
X153167772Y-81844297D01*
X153012900Y-81780147D01*
X152873519Y-81687015D01*
X152754985Y-81568481D01*
X152661853Y-81429100D01*
X152597703Y-81274228D01*
X152565000Y-81109816D01*
X152565000Y-80942184D01*
X152597703Y-80777772D01*
X152661853Y-80622900D01*
X152754985Y-80483519D01*
X152873519Y-80364985D01*
X153012900Y-80271853D01*
X153167772Y-80207703D01*
X153332184Y-80175000D01*
X153499816Y-80175000D01*
X153664228Y-80207703D01*
G37*
G36*
X138424228Y-80207703D02*
G01*
X138579100Y-80271853D01*
X138718481Y-80364985D01*
X138837015Y-80483519D01*
X138930147Y-80622900D01*
X138994297Y-80777772D01*
X139027000Y-80942184D01*
X139027000Y-81109816D01*
X138994297Y-81274228D01*
X138930147Y-81429100D01*
X138837015Y-81568481D01*
X138718481Y-81687015D01*
X138579100Y-81780147D01*
X138424228Y-81844297D01*
X138259816Y-81877000D01*
X138092184Y-81877000D01*
X137927772Y-81844297D01*
X137772900Y-81780147D01*
X137633519Y-81687015D01*
X137514985Y-81568481D01*
X137421853Y-81429100D01*
X137357703Y-81274228D01*
X137325000Y-81109816D01*
X137325000Y-80942184D01*
X137357703Y-80777772D01*
X137421853Y-80622900D01*
X137514985Y-80483519D01*
X137633519Y-80364985D01*
X137772900Y-80271853D01*
X137927772Y-80207703D01*
X138092184Y-80175000D01*
X138259816Y-80175000D01*
X138424228Y-80207703D01*
G37*
G36*
X142275000Y-81527000D02*
G01*
X141673000Y-81527000D01*
X141673000Y-80525000D01*
X142275000Y-80525000D01*
X142275000Y-81527000D01*
G37*
G36*
X149919000Y-81527000D02*
G01*
X149317000Y-81527000D01*
X149317000Y-80525000D01*
X149919000Y-80525000D01*
X149919000Y-81527000D01*
G37*
G36*
X151419000Y-81527000D02*
G01*
X150817000Y-81527000D01*
X150817000Y-80525000D01*
X151419000Y-80525000D01*
X151419000Y-81527000D01*
G37*
G36*
X140775000Y-81527000D02*
G01*
X140173000Y-81527000D01*
X140173000Y-80525000D01*
X140775000Y-80525000D01*
X140775000Y-81527000D01*
G37*
G36*
X153664228Y-77667703D02*
G01*
X153819100Y-77731853D01*
X153958481Y-77824985D01*
X154077015Y-77943519D01*
X154170147Y-78082900D01*
X154234297Y-78237772D01*
X154267000Y-78402184D01*
X154267000Y-78569816D01*
X154234297Y-78734228D01*
X154170147Y-78889100D01*
X154077015Y-79028481D01*
X153958481Y-79147015D01*
X153819100Y-79240147D01*
X153664228Y-79304297D01*
X153499816Y-79337000D01*
X153332184Y-79337000D01*
X153167772Y-79304297D01*
X153012900Y-79240147D01*
X152873519Y-79147015D01*
X152754985Y-79028481D01*
X152661853Y-78889100D01*
X152597703Y-78734228D01*
X152565000Y-78569816D01*
X152565000Y-78402184D01*
X152597703Y-78237772D01*
X152661853Y-78082900D01*
X152754985Y-77943519D01*
X152873519Y-77824985D01*
X153012900Y-77731853D01*
X153167772Y-77667703D01*
X153332184Y-77635000D01*
X153499816Y-77635000D01*
X153664228Y-77667703D01*
G37*
G36*
X139027000Y-79337000D02*
G01*
X137325000Y-79337000D01*
X137325000Y-77635000D01*
X139027000Y-77635000D01*
X139027000Y-79337000D01*
G37*
G36*
X142275000Y-78987000D02*
G01*
X141673000Y-78987000D01*
X141673000Y-77985000D01*
X142275000Y-77985000D01*
X142275000Y-78987000D01*
G37*
G36*
X140775000Y-78987000D02*
G01*
X140173000Y-78987000D01*
X140173000Y-77985000D01*
X140775000Y-77985000D01*
X140775000Y-78987000D01*
G37*
G36*
X149919000Y-78987000D02*
G01*
X149317000Y-78987000D01*
X149317000Y-77985000D01*
X149919000Y-77985000D01*
X149919000Y-78987000D01*
G37*
G36*
X151419000Y-78987000D02*
G01*
X150817000Y-78987000D01*
X150817000Y-77985000D01*
X151419000Y-77985000D01*
X151419000Y-78987000D01*
G37*
M02*
