G04 #@! TF.GenerationSoftware,KiCad,Pcbnew,(5.1.6)-1*
G04 #@! TF.CreationDate,2020-12-06T15:05:41+11:00*
G04 #@! TF.ProjectId,EAadaptor,45416164-6170-4746-9f72-2e6b69636164,rev?*
G04 #@! TF.SameCoordinates,Original*
G04 #@! TF.FileFunction,Legend,Top*
G04 #@! TF.FilePolarity,Positive*
%FSLAX46Y46*%
G04 Gerber Fmt 4.6, Leading zero omitted, Abs format (unit mm)*
G04 Created by KiCad (PCBNEW (5.1.6)-1) date 2020-12-06 15:05:41*
%MOMM*%
%LPD*%
G01*
G04 APERTURE LIST*
%ADD10C,0.120000*%
%ADD11C,0.100000*%
%ADD12C,0.125000*%
%ADD13C,0.150000*%
G04 APERTURE END LIST*
D10*
X146812000Y-79756000D02*
G75*
G02*
X145796000Y-78740000I0J1016000D01*
G01*
X145796000Y-80772000D02*
X145796000Y-81280000D01*
X145796000Y-80772000D02*
G75*
G02*
X146812000Y-79756000I1016000J0D01*
G01*
X146812000Y-112776000D02*
X153416000Y-112776000D01*
X145796000Y-111760000D02*
G75*
G02*
X144780000Y-112776000I-1016000J0D01*
G01*
X149098000Y-79502000D02*
X149098000Y-78994000D01*
X151638000Y-79502000D02*
X149098000Y-79502000D01*
X151638000Y-78994000D02*
X151638000Y-79502000D01*
X149098000Y-77470000D02*
X149098000Y-77978000D01*
X151638000Y-77470000D02*
X149098000Y-77470000D01*
X151638000Y-77978000D02*
X151638000Y-77470000D01*
D11*
G36*
X147066000Y-101092000D02*
G01*
X146304000Y-101092000D01*
X146558000Y-100838000D01*
X147066000Y-100838000D01*
X147066000Y-101092000D01*
G37*
X147066000Y-101092000D02*
X146304000Y-101092000D01*
X146558000Y-100838000D01*
X147066000Y-100838000D01*
X147066000Y-101092000D01*
D10*
X146304000Y-101092000D02*
G75*
G02*
X146558000Y-100838000I254000J0D01*
G01*
D11*
G36*
X147066000Y-112268000D02*
G01*
X146558000Y-112268000D01*
X146304000Y-112014000D01*
X147066000Y-112014000D01*
X147066000Y-112268000D01*
G37*
X147066000Y-112268000D02*
X146558000Y-112268000D01*
X146304000Y-112014000D01*
X147066000Y-112014000D01*
X147066000Y-112268000D01*
D10*
X146558000Y-112268000D02*
G75*
G02*
X146304000Y-112014000I0J254000D01*
G01*
X146050000Y-85344000D02*
X146050000Y-89408000D01*
X147066000Y-89408000D02*
X147066000Y-85344000D01*
X146558000Y-89916000D02*
G75*
G02*
X146050000Y-89408000I0J508000D01*
G01*
X147066000Y-89408000D02*
G75*
G02*
X146558000Y-89916000I-508000J0D01*
G01*
X146050000Y-85344000D02*
G75*
G02*
X146558000Y-84836000I508000J0D01*
G01*
X146558000Y-84836000D02*
G75*
G02*
X147066000Y-85344000I0J-508000D01*
G01*
D11*
G36*
X146304000Y-110236000D02*
G01*
X145288000Y-109474000D01*
X146304000Y-109474000D01*
X146304000Y-110236000D01*
G37*
X146304000Y-110236000D02*
X145288000Y-109474000D01*
X146304000Y-109474000D01*
X146304000Y-110236000D01*
D10*
X145288000Y-109728000D02*
G75*
G02*
X146304000Y-110744000I0J-1016000D01*
G01*
D11*
G36*
X146304000Y-103886000D02*
G01*
X145542000Y-103378000D01*
X146812000Y-102108000D01*
X146304000Y-103886000D01*
G37*
X146304000Y-103886000D02*
X145542000Y-103378000D01*
X146812000Y-102108000D01*
X146304000Y-103886000D01*
D10*
X146304000Y-102108000D02*
G75*
G02*
X145288000Y-103124000I-1016000J0D01*
G01*
X145542000Y-78232000D02*
X146050000Y-78232000D01*
X145542000Y-78232000D02*
G75*
G02*
X144526000Y-77216000I0J1016000D01*
G01*
X147066000Y-77216000D02*
G75*
G02*
X146050000Y-78232000I-1016000J0D01*
G01*
D12*
X140104761Y-111232190D02*
X139771428Y-111732190D01*
X139771428Y-111232190D02*
X140104761Y-111732190D01*
X139628571Y-111232190D02*
X139295238Y-111732190D01*
X139295238Y-111232190D02*
X139628571Y-111732190D01*
D10*
X154432000Y-79756000D02*
X154432000Y-78740000D01*
X153416000Y-77216000D02*
G75*
G02*
X154432000Y-78232000I0J-1016000D01*
G01*
D11*
G36*
X147066000Y-112014000D02*
G01*
X146304000Y-112014000D01*
X146304000Y-101092000D01*
X147066000Y-101092000D01*
X147066000Y-112014000D01*
G37*
X147066000Y-112014000D02*
X146304000Y-112014000D01*
X146304000Y-101092000D01*
X147066000Y-101092000D01*
X147066000Y-112014000D01*
D10*
X146812000Y-112776000D02*
G75*
G02*
X145796000Y-111760000I0J1016000D01*
G01*
X154432000Y-91440000D02*
X154432000Y-83312000D01*
X153416000Y-82296000D02*
G75*
G02*
X154432000Y-83312000I0J-1016000D01*
G01*
X154432000Y-91440000D02*
G75*
G02*
X153416000Y-92456000I-1016000J0D01*
G01*
X154432000Y-96520000D02*
X154432000Y-96012000D01*
X153416000Y-94996000D02*
G75*
G02*
X154432000Y-96012000I0J-1016000D01*
G01*
X154432000Y-96520000D02*
G75*
G02*
X153416000Y-97536000I-1016000J0D01*
G01*
X137160000Y-101600000D02*
X137160000Y-78232000D01*
X137160000Y-78232000D02*
G75*
G02*
X138176000Y-77216000I1016000J0D01*
G01*
X138176000Y-102616000D02*
G75*
G02*
X137160000Y-101600000I0J1016000D01*
G01*
X137160000Y-109220000D02*
X137160000Y-103632000D01*
X137160000Y-103632000D02*
G75*
G02*
X138176000Y-102616000I1016000J0D01*
G01*
X138176000Y-110236000D02*
G75*
G02*
X137160000Y-109220000I0J1016000D01*
G01*
X144780000Y-112776000D02*
X138176000Y-112776000D01*
D11*
G36*
X147066000Y-109728000D02*
G01*
X144526000Y-109728000D01*
X144526000Y-103124000D01*
X147066000Y-103124000D01*
X147066000Y-109728000D01*
G37*
X147066000Y-109728000D02*
X144526000Y-109728000D01*
X144526000Y-103124000D01*
X147066000Y-103124000D01*
X147066000Y-109728000D01*
D10*
X144526000Y-77216000D02*
X138176000Y-77216000D01*
X153416000Y-77216000D02*
X147066000Y-77216000D01*
X146812000Y-100076000D02*
G75*
G02*
X145796000Y-99060000I0J1016000D01*
G01*
X154432000Y-78740000D02*
X154432000Y-78232000D01*
X154432000Y-81280000D02*
X154432000Y-80772000D01*
X153416000Y-79756000D02*
G75*
G02*
X154432000Y-80772000I0J-1016000D01*
G01*
X154432000Y-81280000D02*
G75*
G02*
X153416000Y-82296000I-1016000J0D01*
G01*
X154432000Y-101092000D02*
X154432000Y-111760000D01*
X153416000Y-100076000D02*
G75*
G02*
X154432000Y-101092000I0J-1016000D01*
G01*
X154432000Y-111760000D02*
G75*
G02*
X153416000Y-112776000I-1016000J0D01*
G01*
X137160000Y-111760000D02*
X137160000Y-110236000D01*
X138176000Y-112776000D02*
G75*
G02*
X137160000Y-111760000I0J1016000D01*
G01*
X154432000Y-99060000D02*
X154432000Y-98552000D01*
X153416000Y-97536000D02*
G75*
G02*
X154432000Y-98552000I0J-1016000D01*
G01*
X154432000Y-99060000D02*
G75*
G02*
X153416000Y-100076000I-1016000J0D01*
G01*
X154432000Y-93980000D02*
X154432000Y-93472000D01*
X153416000Y-92456000D02*
G75*
G02*
X154432000Y-93472000I0J-1016000D01*
G01*
X154432000Y-93980000D02*
G75*
G02*
X153416000Y-94996000I-1016000J0D01*
G01*
X145796000Y-101600000D02*
G75*
G02*
X144780000Y-102616000I-1016000J0D01*
G01*
X145796000Y-93472000D02*
G75*
G02*
X146812000Y-92456000I1016000J0D01*
G01*
X145796000Y-98552000D02*
G75*
G02*
X146812000Y-97536000I1016000J0D01*
G01*
X146812000Y-82296000D02*
G75*
G02*
X145796000Y-81280000I0J1016000D01*
G01*
X146812000Y-94996000D02*
G75*
G02*
X145796000Y-93980000I0J1016000D01*
G01*
X145796000Y-101092000D02*
G75*
G02*
X146812000Y-100076000I1016000J0D01*
G01*
X145796000Y-78740000D02*
X145796000Y-78232000D01*
X146812000Y-79756000D02*
X146812000Y-79756000D01*
X144780000Y-110236000D02*
G75*
G02*
X145796000Y-111252000I0J-1016000D01*
G01*
X154432000Y-79756000D02*
X146812000Y-79756000D01*
X153416000Y-82296000D02*
X146812000Y-82296000D01*
X146812000Y-92456000D02*
X153416000Y-92456000D01*
X145796000Y-93980000D02*
X145796000Y-93472000D01*
X146812000Y-94996000D02*
X153416000Y-94996000D01*
X146812000Y-97536000D02*
X153416000Y-97536000D01*
X145796000Y-99060000D02*
X145796000Y-98552000D01*
X145796000Y-111252000D02*
X145796000Y-111760000D01*
X137160000Y-110236000D02*
X144780000Y-110236000D01*
X146812000Y-100076000D02*
X153416000Y-100076000D01*
X145796000Y-101600000D02*
X145796000Y-101092000D01*
X138176000Y-102616000D02*
X144780000Y-102616000D01*
D13*
X142732285Y-110958380D02*
X143065619Y-111958380D01*
X143398952Y-110958380D01*
X143684666Y-111910761D02*
X143827523Y-111958380D01*
X144065619Y-111958380D01*
X144160857Y-111910761D01*
X144208476Y-111863142D01*
X144256095Y-111767904D01*
X144256095Y-111672666D01*
X144208476Y-111577428D01*
X144160857Y-111529809D01*
X144065619Y-111482190D01*
X143875142Y-111434571D01*
X143779904Y-111386952D01*
X143732285Y-111339333D01*
X143684666Y-111244095D01*
X143684666Y-111148857D01*
X143732285Y-111053619D01*
X143779904Y-111006000D01*
X143875142Y-110958380D01*
X144113238Y-110958380D01*
X144256095Y-111006000D01*
X144637047Y-111910761D02*
X144779904Y-111958380D01*
X145018000Y-111958380D01*
X145113238Y-111910761D01*
X145160857Y-111863142D01*
X145208476Y-111767904D01*
X145208476Y-111672666D01*
X145160857Y-111577428D01*
X145113238Y-111529809D01*
X145018000Y-111482190D01*
X144827523Y-111434571D01*
X144732285Y-111386952D01*
X144684666Y-111339333D01*
X144637047Y-111244095D01*
X144637047Y-111148857D01*
X144684666Y-111053619D01*
X144732285Y-111006000D01*
X144827523Y-110958380D01*
X145065619Y-110958380D01*
X145208476Y-111006000D01*
D12*
X151868190Y-111232190D02*
X151915809Y-111232190D01*
X151963428Y-111256000D01*
X151987238Y-111279809D01*
X152011047Y-111327428D01*
X152034857Y-111422666D01*
X152034857Y-111541714D01*
X152011047Y-111636952D01*
X151987238Y-111684571D01*
X151963428Y-111708380D01*
X151915809Y-111732190D01*
X151868190Y-111732190D01*
X151820571Y-111708380D01*
X151796761Y-111684571D01*
X151772952Y-111636952D01*
X151749142Y-111541714D01*
X151749142Y-111422666D01*
X151772952Y-111327428D01*
X151796761Y-111279809D01*
X151820571Y-111256000D01*
X151868190Y-111232190D01*
X151868190Y-101072190D02*
X151915809Y-101072190D01*
X151963428Y-101096000D01*
X151987238Y-101119809D01*
X152011047Y-101167428D01*
X152034857Y-101262666D01*
X152034857Y-101381714D01*
X152011047Y-101476952D01*
X151987238Y-101524571D01*
X151963428Y-101548380D01*
X151915809Y-101572190D01*
X151868190Y-101572190D01*
X151820571Y-101548380D01*
X151796761Y-101524571D01*
X151772952Y-101476952D01*
X151749142Y-101381714D01*
X151749142Y-101262666D01*
X151772952Y-101167428D01*
X151796761Y-101119809D01*
X151820571Y-101096000D01*
X151868190Y-101072190D01*
X152034857Y-104112190D02*
X151749142Y-104112190D01*
X151892000Y-104112190D02*
X151892000Y-103612190D01*
X151844380Y-103683619D01*
X151796761Y-103731238D01*
X151749142Y-103755047D01*
X152034857Y-109192190D02*
X151749142Y-109192190D01*
X151892000Y-109192190D02*
X151892000Y-108692190D01*
X151844380Y-108763619D01*
X151796761Y-108811238D01*
X151749142Y-108835047D01*
X139842857Y-109192190D02*
X139557142Y-109192190D01*
X139700000Y-109192190D02*
X139700000Y-108692190D01*
X139652380Y-108763619D01*
X139604761Y-108811238D01*
X139557142Y-108835047D01*
X139842857Y-106652190D02*
X139557142Y-106652190D01*
X139700000Y-106652190D02*
X139700000Y-106152190D01*
X139652380Y-106223619D01*
X139604761Y-106271238D01*
X139557142Y-106295047D01*
D13*
X146240666Y-78446380D02*
X146574000Y-79446380D01*
X146907333Y-78446380D01*
X147812095Y-79351142D02*
X147764476Y-79398761D01*
X147621619Y-79446380D01*
X147526380Y-79446380D01*
X147383523Y-79398761D01*
X147288285Y-79303523D01*
X147240666Y-79208285D01*
X147193047Y-79017809D01*
X147193047Y-78874952D01*
X147240666Y-78684476D01*
X147288285Y-78589238D01*
X147383523Y-78494000D01*
X147526380Y-78446380D01*
X147621619Y-78446380D01*
X147764476Y-78494000D01*
X147812095Y-78541619D01*
X148812095Y-79351142D02*
X148764476Y-79398761D01*
X148621619Y-79446380D01*
X148526380Y-79446380D01*
X148383523Y-79398761D01*
X148288285Y-79303523D01*
X148240666Y-79208285D01*
X148193047Y-79017809D01*
X148193047Y-78874952D01*
X148240666Y-78684476D01*
X148288285Y-78589238D01*
X148383523Y-78494000D01*
X148526380Y-78446380D01*
X148621619Y-78446380D01*
X148764476Y-78494000D01*
X148812095Y-78541619D01*
X147621714Y-88558666D02*
X148097904Y-88558666D01*
X147526476Y-88844380D02*
X147859809Y-87844380D01*
X148193142Y-88844380D01*
X148574095Y-88844380D02*
X148764571Y-88844380D01*
X148859809Y-88796761D01*
X148907428Y-88749142D01*
X149002666Y-88606285D01*
X149050285Y-88415809D01*
X149050285Y-88034857D01*
X149002666Y-87939619D01*
X148955047Y-87892000D01*
X148859809Y-87844380D01*
X148669333Y-87844380D01*
X148574095Y-87892000D01*
X148526476Y-87939619D01*
X148478857Y-88034857D01*
X148478857Y-88272952D01*
X148526476Y-88368190D01*
X148574095Y-88415809D01*
X148669333Y-88463428D01*
X148859809Y-88463428D01*
X148955047Y-88415809D01*
X149002666Y-88368190D01*
X149050285Y-88272952D01*
X142517904Y-109418380D02*
X142517904Y-108418380D01*
X142756000Y-108418380D01*
X142898857Y-108466000D01*
X142994095Y-108561238D01*
X143041714Y-108656476D01*
X143089333Y-108846952D01*
X143089333Y-108989809D01*
X143041714Y-109180285D01*
X142994095Y-109275523D01*
X142898857Y-109370761D01*
X142756000Y-109418380D01*
X142517904Y-109418380D01*
X143470285Y-108513619D02*
X143517904Y-108466000D01*
X143613142Y-108418380D01*
X143851238Y-108418380D01*
X143946476Y-108466000D01*
X143994095Y-108513619D01*
X144041714Y-108608857D01*
X144041714Y-108704095D01*
X143994095Y-108846952D01*
X143422666Y-109418380D01*
X144041714Y-109418380D01*
X147621714Y-86272666D02*
X148097904Y-86272666D01*
X147526476Y-86558380D02*
X147859809Y-85558380D01*
X148193142Y-86558380D01*
X148669333Y-85986952D02*
X148574095Y-85939333D01*
X148526476Y-85891714D01*
X148478857Y-85796476D01*
X148478857Y-85748857D01*
X148526476Y-85653619D01*
X148574095Y-85606000D01*
X148669333Y-85558380D01*
X148859809Y-85558380D01*
X148955047Y-85606000D01*
X149002666Y-85653619D01*
X149050285Y-85748857D01*
X149050285Y-85796476D01*
X149002666Y-85891714D01*
X148955047Y-85939333D01*
X148859809Y-85986952D01*
X148669333Y-85986952D01*
X148574095Y-86034571D01*
X148526476Y-86082190D01*
X148478857Y-86177428D01*
X148478857Y-86367904D01*
X148526476Y-86463142D01*
X148574095Y-86510761D01*
X148669333Y-86558380D01*
X148859809Y-86558380D01*
X148955047Y-86510761D01*
X149002666Y-86463142D01*
X149050285Y-86367904D01*
X149050285Y-86177428D01*
X149002666Y-86082190D01*
X148955047Y-86034571D01*
X148859809Y-85986952D01*
X146637523Y-83732666D02*
X147113714Y-83732666D01*
X146542285Y-84018380D02*
X146875619Y-83018380D01*
X147208952Y-84018380D01*
X148066095Y-84018380D02*
X147494666Y-84018380D01*
X147780380Y-84018380D02*
X147780380Y-83018380D01*
X147685142Y-83161238D01*
X147589904Y-83256476D01*
X147494666Y-83304095D01*
X148399428Y-83018380D02*
X149018476Y-83018380D01*
X148685142Y-83399333D01*
X148828000Y-83399333D01*
X148923238Y-83446952D01*
X148970857Y-83494571D01*
X149018476Y-83589809D01*
X149018476Y-83827904D01*
X148970857Y-83923142D01*
X148923238Y-83970761D01*
X148828000Y-84018380D01*
X148542285Y-84018380D01*
X148447047Y-83970761D01*
X148399428Y-83923142D01*
X146447047Y-80478380D02*
X146685142Y-81478380D01*
X146875619Y-80764095D01*
X147066095Y-81478380D01*
X147304190Y-80478380D01*
X147685142Y-80954571D02*
X148018476Y-80954571D01*
X148161333Y-81478380D02*
X147685142Y-81478380D01*
X147685142Y-80478380D01*
X148161333Y-80478380D01*
X148542285Y-80811714D02*
X149256571Y-80811714D01*
X148828000Y-80383142D02*
X148542285Y-81668857D01*
X149161333Y-81240285D02*
X148447047Y-81240285D01*
X148875619Y-81668857D02*
X149161333Y-80383142D01*
X142517904Y-106878380D02*
X142517904Y-105878380D01*
X142756000Y-105878380D01*
X142898857Y-105926000D01*
X142994095Y-106021238D01*
X143041714Y-106116476D01*
X143089333Y-106306952D01*
X143089333Y-106449809D01*
X143041714Y-106640285D01*
X142994095Y-106735523D01*
X142898857Y-106830761D01*
X142756000Y-106878380D01*
X142517904Y-106878380D01*
X144041714Y-106878380D02*
X143470285Y-106878380D01*
X143756000Y-106878380D02*
X143756000Y-105878380D01*
X143660761Y-106021238D01*
X143565523Y-106116476D01*
X143470285Y-106164095D01*
X147597904Y-109418380D02*
X147597904Y-108418380D01*
X147836000Y-108418380D01*
X147978857Y-108466000D01*
X148074095Y-108561238D01*
X148121714Y-108656476D01*
X148169333Y-108846952D01*
X148169333Y-108989809D01*
X148121714Y-109180285D01*
X148074095Y-109275523D01*
X147978857Y-109370761D01*
X147836000Y-109418380D01*
X147597904Y-109418380D01*
X149026476Y-108751714D02*
X149026476Y-109418380D01*
X148788380Y-108370761D02*
X148550285Y-109085047D01*
X149169333Y-109085047D01*
X146637523Y-96432666D02*
X147113714Y-96432666D01*
X146542285Y-96718380D02*
X146875619Y-95718380D01*
X147208952Y-96718380D01*
X148066095Y-96718380D02*
X147494666Y-96718380D01*
X147780380Y-96718380D02*
X147780380Y-95718380D01*
X147685142Y-95861238D01*
X147589904Y-95956476D01*
X147494666Y-96004095D01*
X148685142Y-95718380D02*
X148780380Y-95718380D01*
X148875619Y-95766000D01*
X148923238Y-95813619D01*
X148970857Y-95908857D01*
X149018476Y-96099333D01*
X149018476Y-96337428D01*
X148970857Y-96527904D01*
X148923238Y-96623142D01*
X148875619Y-96670761D01*
X148780380Y-96718380D01*
X148685142Y-96718380D01*
X148589904Y-96670761D01*
X148542285Y-96623142D01*
X148494666Y-96527904D01*
X148447047Y-96337428D01*
X148447047Y-96099333D01*
X148494666Y-95908857D01*
X148542285Y-95813619D01*
X148589904Y-95766000D01*
X148685142Y-95718380D01*
X147597904Y-104338380D02*
X147597904Y-103338380D01*
X147836000Y-103338380D01*
X147978857Y-103386000D01*
X148074095Y-103481238D01*
X148121714Y-103576476D01*
X148169333Y-103766952D01*
X148169333Y-103909809D01*
X148121714Y-104100285D01*
X148074095Y-104195523D01*
X147978857Y-104290761D01*
X147836000Y-104338380D01*
X147597904Y-104338380D01*
X149026476Y-103338380D02*
X148836000Y-103338380D01*
X148740761Y-103386000D01*
X148693142Y-103433619D01*
X148597904Y-103576476D01*
X148550285Y-103766952D01*
X148550285Y-104147904D01*
X148597904Y-104243142D01*
X148645523Y-104290761D01*
X148740761Y-104338380D01*
X148931238Y-104338380D01*
X149026476Y-104290761D01*
X149074095Y-104243142D01*
X149121714Y-104147904D01*
X149121714Y-103909809D01*
X149074095Y-103814571D01*
X149026476Y-103766952D01*
X148931238Y-103719333D01*
X148740761Y-103719333D01*
X148645523Y-103766952D01*
X148597904Y-103814571D01*
X148550285Y-103909809D01*
X146637523Y-91352666D02*
X147113714Y-91352666D01*
X146542285Y-91638380D02*
X146875619Y-90638380D01*
X147208952Y-91638380D01*
X148066095Y-91638380D02*
X147494666Y-91638380D01*
X147780380Y-91638380D02*
X147780380Y-90638380D01*
X147685142Y-90781238D01*
X147589904Y-90876476D01*
X147494666Y-90924095D01*
X149018476Y-91638380D02*
X148447047Y-91638380D01*
X148732761Y-91638380D02*
X148732761Y-90638380D01*
X148637523Y-90781238D01*
X148542285Y-90876476D01*
X148447047Y-90924095D01*
X147597904Y-101798380D02*
X147597904Y-100798380D01*
X147836000Y-100798380D01*
X147978857Y-100846000D01*
X148074095Y-100941238D01*
X148121714Y-101036476D01*
X148169333Y-101226952D01*
X148169333Y-101369809D01*
X148121714Y-101560285D01*
X148074095Y-101655523D01*
X147978857Y-101750761D01*
X147836000Y-101798380D01*
X147597904Y-101798380D01*
X148502666Y-100798380D02*
X149169333Y-100798380D01*
X148740761Y-101798380D01*
X146780380Y-93178380D02*
X146970857Y-93178380D01*
X147066095Y-93226000D01*
X147161333Y-93321238D01*
X147208952Y-93511714D01*
X147208952Y-93845047D01*
X147161333Y-94035523D01*
X147066095Y-94130761D01*
X146970857Y-94178380D01*
X146780380Y-94178380D01*
X146685142Y-94130761D01*
X146589904Y-94035523D01*
X146542285Y-93845047D01*
X146542285Y-93511714D01*
X146589904Y-93321238D01*
X146685142Y-93226000D01*
X146780380Y-93178380D01*
X147637523Y-93654571D02*
X147970857Y-93654571D01*
X148113714Y-94178380D02*
X147637523Y-94178380D01*
X147637523Y-93178380D01*
X148113714Y-93178380D01*
X148494666Y-93511714D02*
X149208952Y-93511714D01*
X148780380Y-93083142D02*
X148494666Y-94368857D01*
X149113714Y-93940285D02*
X148399428Y-93940285D01*
X148828000Y-94368857D02*
X149113714Y-93083142D01*
X147597904Y-111958380D02*
X147597904Y-110958380D01*
X147836000Y-110958380D01*
X147978857Y-111006000D01*
X148074095Y-111101238D01*
X148121714Y-111196476D01*
X148169333Y-111386952D01*
X148169333Y-111529809D01*
X148121714Y-111720285D01*
X148074095Y-111815523D01*
X147978857Y-111910761D01*
X147836000Y-111958380D01*
X147597904Y-111958380D01*
X148502666Y-110958380D02*
X149121714Y-110958380D01*
X148788380Y-111339333D01*
X148931238Y-111339333D01*
X149026476Y-111386952D01*
X149074095Y-111434571D01*
X149121714Y-111529809D01*
X149121714Y-111767904D01*
X149074095Y-111863142D01*
X149026476Y-111910761D01*
X148931238Y-111958380D01*
X148645523Y-111958380D01*
X148550285Y-111910761D01*
X148502666Y-111863142D01*
X147597904Y-106878380D02*
X147597904Y-105878380D01*
X147836000Y-105878380D01*
X147978857Y-105926000D01*
X148074095Y-106021238D01*
X148121714Y-106116476D01*
X148169333Y-106306952D01*
X148169333Y-106449809D01*
X148121714Y-106640285D01*
X148074095Y-106735523D01*
X147978857Y-106830761D01*
X147836000Y-106878380D01*
X147597904Y-106878380D01*
X149074095Y-105878380D02*
X148597904Y-105878380D01*
X148550285Y-106354571D01*
X148597904Y-106306952D01*
X148693142Y-106259333D01*
X148931238Y-106259333D01*
X149026476Y-106306952D01*
X149074095Y-106354571D01*
X149121714Y-106449809D01*
X149121714Y-106687904D01*
X149074095Y-106783142D01*
X149026476Y-106830761D01*
X148931238Y-106878380D01*
X148693142Y-106878380D01*
X148597904Y-106830761D01*
X148550285Y-106783142D01*
X147185142Y-99163142D02*
X147137523Y-99210761D01*
X146994666Y-99258380D01*
X146899428Y-99258380D01*
X146756571Y-99210761D01*
X146661333Y-99115523D01*
X146613714Y-99020285D01*
X146566095Y-98829809D01*
X146566095Y-98686952D01*
X146613714Y-98496476D01*
X146661333Y-98401238D01*
X146756571Y-98306000D01*
X146899428Y-98258380D01*
X146994666Y-98258380D01*
X147137523Y-98306000D01*
X147185142Y-98353619D01*
X147613714Y-98734571D02*
X147947047Y-98734571D01*
X148089904Y-99258380D02*
X147613714Y-99258380D01*
X147613714Y-98258380D01*
X148089904Y-98258380D01*
X148470857Y-98591714D02*
X149185142Y-98591714D01*
X148756571Y-98163142D02*
X148470857Y-99448857D01*
X149089904Y-99020285D02*
X148375619Y-99020285D01*
X148804190Y-99448857D02*
X149089904Y-98163142D01*
X142541714Y-101512666D02*
X143017904Y-101512666D01*
X142446476Y-101798380D02*
X142779809Y-100798380D01*
X143113142Y-101798380D01*
X143636952Y-100798380D02*
X143732190Y-100798380D01*
X143827428Y-100846000D01*
X143875047Y-100893619D01*
X143922666Y-100988857D01*
X143970285Y-101179333D01*
X143970285Y-101417428D01*
X143922666Y-101607904D01*
X143875047Y-101703142D01*
X143827428Y-101750761D01*
X143732190Y-101798380D01*
X143636952Y-101798380D01*
X143541714Y-101750761D01*
X143494095Y-101703142D01*
X143446476Y-101607904D01*
X143398857Y-101417428D01*
X143398857Y-101179333D01*
X143446476Y-100988857D01*
X143494095Y-100893619D01*
X143541714Y-100846000D01*
X143636952Y-100798380D01*
X142541714Y-88812666D02*
X143017904Y-88812666D01*
X142446476Y-89098380D02*
X142779809Y-88098380D01*
X143113142Y-89098380D01*
X143922666Y-88098380D02*
X143446476Y-88098380D01*
X143398857Y-88574571D01*
X143446476Y-88526952D01*
X143541714Y-88479333D01*
X143779809Y-88479333D01*
X143875047Y-88526952D01*
X143922666Y-88574571D01*
X143970285Y-88669809D01*
X143970285Y-88907904D01*
X143922666Y-89003142D01*
X143875047Y-89050761D01*
X143779809Y-89098380D01*
X143541714Y-89098380D01*
X143446476Y-89050761D01*
X143398857Y-89003142D01*
X142573523Y-81192666D02*
X143049714Y-81192666D01*
X142478285Y-81478380D02*
X142811619Y-80478380D01*
X143144952Y-81478380D01*
X144002095Y-81478380D02*
X143430666Y-81478380D01*
X143716380Y-81478380D02*
X143716380Y-80478380D01*
X143621142Y-80621238D01*
X143525904Y-80716476D01*
X143430666Y-80764095D01*
X144383047Y-80573619D02*
X144430666Y-80526000D01*
X144525904Y-80478380D01*
X144764000Y-80478380D01*
X144859238Y-80526000D01*
X144906857Y-80573619D01*
X144954476Y-80668857D01*
X144954476Y-80764095D01*
X144906857Y-80906952D01*
X144335428Y-81478380D01*
X144954476Y-81478380D01*
X142541714Y-98972666D02*
X143017904Y-98972666D01*
X142446476Y-99258380D02*
X142779809Y-98258380D01*
X143113142Y-99258380D01*
X143970285Y-99258380D02*
X143398857Y-99258380D01*
X143684571Y-99258380D02*
X143684571Y-98258380D01*
X143589333Y-98401238D01*
X143494095Y-98496476D01*
X143398857Y-98544095D01*
X142517904Y-104338380D02*
X142517904Y-103338380D01*
X142756000Y-103338380D01*
X142898857Y-103386000D01*
X142994095Y-103481238D01*
X143041714Y-103576476D01*
X143089333Y-103766952D01*
X143089333Y-103909809D01*
X143041714Y-104100285D01*
X142994095Y-104195523D01*
X142898857Y-104290761D01*
X142756000Y-104338380D01*
X142517904Y-104338380D01*
X143708380Y-103338380D02*
X143803619Y-103338380D01*
X143898857Y-103386000D01*
X143946476Y-103433619D01*
X143994095Y-103528857D01*
X144041714Y-103719333D01*
X144041714Y-103957428D01*
X143994095Y-104147904D01*
X143946476Y-104243142D01*
X143898857Y-104290761D01*
X143803619Y-104338380D01*
X143708380Y-104338380D01*
X143613142Y-104290761D01*
X143565523Y-104243142D01*
X143517904Y-104147904D01*
X143470285Y-103957428D01*
X143470285Y-103719333D01*
X143517904Y-103528857D01*
X143565523Y-103433619D01*
X143613142Y-103386000D01*
X143708380Y-103338380D01*
X142541714Y-91352666D02*
X143017904Y-91352666D01*
X142446476Y-91638380D02*
X142779809Y-90638380D01*
X143113142Y-91638380D01*
X143875047Y-90971714D02*
X143875047Y-91638380D01*
X143636952Y-90590761D02*
X143398857Y-91305047D01*
X144017904Y-91305047D01*
X142541714Y-86272666D02*
X143017904Y-86272666D01*
X142446476Y-86558380D02*
X142779809Y-85558380D01*
X143113142Y-86558380D01*
X143875047Y-85558380D02*
X143684571Y-85558380D01*
X143589333Y-85606000D01*
X143541714Y-85653619D01*
X143446476Y-85796476D01*
X143398857Y-85986952D01*
X143398857Y-86367904D01*
X143446476Y-86463142D01*
X143494095Y-86510761D01*
X143589333Y-86558380D01*
X143779809Y-86558380D01*
X143875047Y-86510761D01*
X143922666Y-86463142D01*
X143970285Y-86367904D01*
X143970285Y-86129809D01*
X143922666Y-86034571D01*
X143875047Y-85986952D01*
X143779809Y-85939333D01*
X143589333Y-85939333D01*
X143494095Y-85986952D01*
X143446476Y-86034571D01*
X143398857Y-86129809D01*
X142541714Y-83732666D02*
X143017904Y-83732666D01*
X142446476Y-84018380D02*
X142779809Y-83018380D01*
X143113142Y-84018380D01*
X143351238Y-83018380D02*
X144017904Y-83018380D01*
X143589333Y-84018380D01*
X142541714Y-96432666D02*
X143017904Y-96432666D01*
X142446476Y-96718380D02*
X142779809Y-95718380D01*
X143113142Y-96718380D01*
X143398857Y-95813619D02*
X143446476Y-95766000D01*
X143541714Y-95718380D01*
X143779809Y-95718380D01*
X143875047Y-95766000D01*
X143922666Y-95813619D01*
X143970285Y-95908857D01*
X143970285Y-96004095D01*
X143922666Y-96146952D01*
X143351238Y-96718380D01*
X143970285Y-96718380D01*
X142541714Y-93892666D02*
X143017904Y-93892666D01*
X142446476Y-94178380D02*
X142779809Y-93178380D01*
X143113142Y-94178380D01*
X143351238Y-93178380D02*
X143970285Y-93178380D01*
X143636952Y-93559333D01*
X143779809Y-93559333D01*
X143875047Y-93606952D01*
X143922666Y-93654571D01*
X143970285Y-93749809D01*
X143970285Y-93987904D01*
X143922666Y-94083142D01*
X143875047Y-94130761D01*
X143779809Y-94178380D01*
X143494095Y-94178380D01*
X143398857Y-94130761D01*
X143351238Y-94083142D01*
X142573523Y-78652666D02*
X143049714Y-78652666D01*
X142478285Y-78938380D02*
X142811619Y-77938380D01*
X143144952Y-78938380D01*
X144002095Y-78938380D02*
X143430666Y-78938380D01*
X143716380Y-78938380D02*
X143716380Y-77938380D01*
X143621142Y-78081238D01*
X143525904Y-78176476D01*
X143430666Y-78224095D01*
X144859238Y-78271714D02*
X144859238Y-78938380D01*
X144621142Y-77890761D02*
X144383047Y-78605047D01*
X145002095Y-78605047D01*
D12*
X151868190Y-106152190D02*
X151915809Y-106152190D01*
X151963428Y-106176000D01*
X151987238Y-106199809D01*
X152011047Y-106247428D01*
X152034857Y-106342666D01*
X152034857Y-106461714D01*
X152011047Y-106556952D01*
X151987238Y-106604571D01*
X151963428Y-106628380D01*
X151915809Y-106652190D01*
X151868190Y-106652190D01*
X151820571Y-106628380D01*
X151796761Y-106604571D01*
X151772952Y-106556952D01*
X151749142Y-106461714D01*
X151749142Y-106342666D01*
X151772952Y-106247428D01*
X151796761Y-106199809D01*
X151820571Y-106176000D01*
X151868190Y-106152190D01*
X139842857Y-104112190D02*
X139557142Y-104112190D01*
X139700000Y-104112190D02*
X139700000Y-103612190D01*
X139652380Y-103683619D01*
X139604761Y-103731238D01*
X139557142Y-103755047D01*
D10*
X140736000Y-110826000D02*
X141736000Y-110826000D01*
X141736000Y-112186000D02*
X140736000Y-112186000D01*
X150868000Y-79166000D02*
X149868000Y-79166000D01*
X149868000Y-77806000D02*
X150868000Y-77806000D01*
X150868000Y-99486000D02*
X149868000Y-99486000D01*
X149868000Y-98126000D02*
X150868000Y-98126000D01*
X149868000Y-95586000D02*
X150868000Y-95586000D01*
X150868000Y-96946000D02*
X149868000Y-96946000D01*
X150868000Y-94406000D02*
X149868000Y-94406000D01*
X149868000Y-93046000D02*
X150868000Y-93046000D01*
X149868000Y-90506000D02*
X150868000Y-90506000D01*
X150868000Y-91866000D02*
X149868000Y-91866000D01*
X150868000Y-89326000D02*
X149868000Y-89326000D01*
X149868000Y-87966000D02*
X150868000Y-87966000D01*
X149868000Y-85426000D02*
X150868000Y-85426000D01*
X150868000Y-86786000D02*
X149868000Y-86786000D01*
X150868000Y-84246000D02*
X149868000Y-84246000D01*
X149868000Y-82886000D02*
X150868000Y-82886000D01*
X149868000Y-80346000D02*
X150868000Y-80346000D01*
X150868000Y-81706000D02*
X149868000Y-81706000D01*
X141724000Y-102026000D02*
X140724000Y-102026000D01*
X140724000Y-100666000D02*
X141724000Y-100666000D01*
X140724000Y-98126000D02*
X141724000Y-98126000D01*
X141724000Y-99486000D02*
X140724000Y-99486000D01*
X141724000Y-96946000D02*
X140724000Y-96946000D01*
X140724000Y-95586000D02*
X141724000Y-95586000D01*
X140724000Y-93046000D02*
X141724000Y-93046000D01*
X141724000Y-94406000D02*
X140724000Y-94406000D01*
X141724000Y-91866000D02*
X140724000Y-91866000D01*
X140724000Y-90506000D02*
X141724000Y-90506000D01*
X140724000Y-87966000D02*
X141724000Y-87966000D01*
X141724000Y-89326000D02*
X140724000Y-89326000D01*
X141724000Y-86786000D02*
X140724000Y-86786000D01*
X140724000Y-85426000D02*
X141724000Y-85426000D01*
X140724000Y-82886000D02*
X141724000Y-82886000D01*
X141724000Y-84246000D02*
X140724000Y-84246000D01*
X141724000Y-81706000D02*
X140724000Y-81706000D01*
X140724000Y-80346000D02*
X141724000Y-80346000D01*
X140724000Y-77806000D02*
X141724000Y-77806000D01*
X141724000Y-79166000D02*
X140724000Y-79166000D01*
X149880000Y-110826000D02*
X150880000Y-110826000D01*
X150880000Y-112186000D02*
X149880000Y-112186000D01*
X150868000Y-102026000D02*
X149868000Y-102026000D01*
X149868000Y-100666000D02*
X150868000Y-100666000D01*
X149868000Y-103206000D02*
X150868000Y-103206000D01*
X150868000Y-104566000D02*
X149868000Y-104566000D01*
X150880000Y-107106000D02*
X149880000Y-107106000D01*
X149880000Y-105746000D02*
X150880000Y-105746000D01*
X149868000Y-108286000D02*
X150868000Y-108286000D01*
X150868000Y-109646000D02*
X149868000Y-109646000D01*
X141724000Y-109646000D02*
X140724000Y-109646000D01*
X140724000Y-108286000D02*
X141724000Y-108286000D01*
X140724000Y-105746000D02*
X141724000Y-105746000D01*
X141724000Y-107106000D02*
X140724000Y-107106000D01*
X141724000Y-104566000D02*
X140724000Y-104566000D01*
X140724000Y-103206000D02*
X141724000Y-103206000D01*
M02*
